#N canvas 2108 67 699 464 12;
#X obj 10 124 tgl 15 0 empty empty empty 17 7 0 10 #fcfcfc #000000
#000000 0 1;
#X floatatom 25 187 5 0 0 0 - - - 0;
#X obj 42 130 r settings;
#X floatatom 107 39 5 0 0 0 - - - 0;
#N canvas 840 103 1212 760 helios-settings 1;
#X obj 18 291 s settings;
#X floatatom 49 163 5 0 0 0 - - - 0;
#X text 101 163 <---------;
#X floatatom 38 90 5 0 0 0 - - - 0;
#X text 101 90 <---------;
#X floatatom 21 21 5 0 0 0 - - - 0;
#X text 101 21 <---------;
#X msg 21 49 maxangle \$1;
#X text 172 21 set the max angle for a corner before inserting points
- default 15 degrees;
#X msg 38 118 subdivide \$1;
#X text 172 90 set the subdivision length for straight lines - default
15;
#X msg 49 191 blanknum \$1;
#X text 172 163 set the number of dwell points to insert at corners
- default 8;
#X msg 68 249 intensity \$1;
#X floatatom 66 221 5 0 0 0 - - - 0;
#X connect 1 0 11 0;
#X connect 3 0 9 0;
#X connect 5 0 7 0;
#X connect 7 0 0 0;
#X connect 9 0 0 0;
#X connect 11 0 0 0;
#X connect 13 0 0 0;
#X connect 14 0 13 0;
#X restore 177 124 pd helios-settings;
#X obj 25 91 array get heliosdata;
#X obj 25 160 helios 30000;
#X obj 30 49 bng 15 250 50 0 empty empty empty 17 7 0 10 #fcfcfc #000000
#000000;
#N canvas 2828 42 652 1002 oscbuffer 1;
#X obj 23 45 oscparse;
#X obj 87 249 list length;
#X obj 55 102 list trim;
#X obj 87 276 change;
#X obj 106 160 change;
#X obj 106 189 s pps;
#X obj 23 73 t b l;
#X obj 23 17 netreceive -u -b 12000;
#X obj 87 301 t f f, f 6;
#X obj 55 158 t l l;
#X obj 24 404 outlet;
#X obj 87 362 outlet;
#X text 138 362 num points;
#X text 75 402 bang;
#X obj 55 221 array set heliosdata;
#X obj 126 332 array size heliosdata;
#X obj 13 467 array define -yrange -2048 2047 heliosdata;
#X obj 87 332 / 5;
#X obj 55 130 route xyrgb pps;
#X connect 0 0 6 0;
#X connect 1 0 3 0;
#X connect 2 0 18 0;
#X connect 3 0 8 0;
#X connect 4 0 5 0;
#X connect 6 0 10 0;
#X connect 6 1 2 0;
#X connect 7 0 0 0;
#X connect 8 0 17 0;
#X connect 8 1 15 0;
#X connect 9 0 14 0;
#X connect 9 1 1 0;
#X connect 17 0 11 0;
#X connect 18 0 9 0;
#X connect 18 1 4 0;
#X restore 25 10 pd oscbuffer;
#X connect 0 0 6 0;
#X connect 2 0 6 0;
#X connect 5 0 6 0;
#X connect 6 0 1 0;
#X connect 8 1 3 0;
#X coords 0 116 0.5 115.5 85 60 0;
