#N canvas 354 68 914 456 12;
#N canvas 127 68 1175 475 UI 1;
#X obj 915 317 r \$0-out;
#X msg 922 255 0;
#X obj 921 282 s kill;
#X obj 923 149 key;
#X obj 922 199 sel 27;
#X obj 962 133 tgl 23 0 empty empty empty 17 7 0 10 -262144 -1 -1 1
1;
#X obj 923 174 spigot;
#X msg 961 97 1;
#X obj 922 226 t b b, f 8;
#X msg 976 256 0 0 0 0 0;
#X obj 976 282 s \$0-out;
#X obj 1062 108 s \$0-out;
#X msg 1062 83 0 0 0 0 0;
#X obj 959 25 loadbang;
#X text 987 163 ESC key killswitch;
#X obj 915 344 s helios-control;
#N canvas 68 521 687 413 geometry-control 0;
#X floatatom 160 31 6 0 0 0 - - -;
#X msg 418 91 scale \$1;
#X obj 418 64 / 100;
#X floatatom 160 60 6 0 0 0 - - -;
#X floatatom 220 60 6 0 0 0 - - -;
#X msg 352 120 0;
#X msg 353 151 0;
#X msg 424 190 offsetx \$1;
#X msg 511 187 offsety \$1;
#X obj 160 89 tgl 23 0 empty empty empty 17 7 0 10 -262144 -1 -1 0
1;
#X obj 220 89 tgl 23 0 empty empty empty 17 7 0 10 -262144 -1 -1 1
1;
#X msg 352 183 0;
#X msg 425 229 flipx \$1;
#X msg 503 225 flipy \$1;
#X msg 351 219 1;
#X obj 402 363 s \$0-out;
#X obj 315 5 r \$0-helios-init;
#X msg 351 82 25;
#X text 20 62 Offset;
#X text 20 89 Flip;
#X text 3 0 BASIC TRANSFORM;
#X obj 315 41 t b;
#X obj 160 122 bng 23 250 50 0 empty empty empty 17 7 0 10 -262144
-1 -1;
#X text 20 122 Reset;
#X text 20 32 Scale;
#X connect 0 0 2 0;
#X connect 1 0 15 0;
#X connect 2 0 1 0;
#X connect 3 0 7 0;
#X connect 4 0 8 0;
#X connect 5 0 3 0;
#X connect 6 0 4 0;
#X connect 7 0 15 0;
#X connect 8 0 15 0;
#X connect 9 0 12 0;
#X connect 10 0 13 0;
#X connect 11 0 9 0;
#X connect 12 0 15 0;
#X connect 13 0 15 0;
#X connect 14 0 10 0;
#X connect 16 0 21 0;
#X connect 17 0 0 0;
#X connect 21 0 5 0;
#X connect 21 0 6 0;
#X connect 21 0 11 0;
#X connect 21 0 14 0;
#X connect 21 0 17 0;
#X connect 22 0 21 0;
#X coords 0 -1 1 1 280 160 2 0 0;
#X restore 301 11 pd geometry-control;
#N canvas 848 488 501 473 color-control 0;
#X floatatom 185 25 7 0 255 0 - - -;
#X text 19 26 Intensity;
#X msg 180 215 intensity \$1;
#X msg 341 55 255;
#X obj 163 340 s \$0-out;
#X text 4 0 COLOR;
#X floatatom 186 58 7 0 255 0 - - -;
#X text 20 59 TTL Threshold;
#X msg 178 252 ttlthreshold \$1;
#X obj 332 31 r \$0-helios-init;
#X floatatom 186 91 7 0 0 0 - - -;
#X text 20 94 Blanking offset;
#X msg 179 300 blankoffset \$1;
#X msg 334 113 0;
#X obj 189 124 bng 23 250 50 0 empty empty 0 4 12 0 10 -262144 -1 -1
;
#X obj 215 124 bng 23 250 50 0 empty empty +1 4 12 0 10 -262144 -1
-1;
#X obj 163 124 bng 23 250 50 0 empty empty -1 4 12 0 10 -262144 -1
-1;
#X floatatom 296 218 5 0 0 0 - - -;
#N canvas 1894 1193 774 547 stepper 0;
#X obj 80 146 + 1;
#X obj 18 145 float 0;
#X obj 79 193 outlet;
#X obj 18 66 t b b;
#X obj 76 62 t b b;
#X msg 170 63 0;
#X msg 50 94 -1;
#X msg 108 95 1;
#X obj 121 62 t f f;
#X text 14 11 prev;
#X text 75 11 next;
#X text 124 9 goto;
#X text 167 9 reset;
#X obj 15 29 inlet;
#X obj 76 29 inlet;
#X obj 123 30 inlet;
#X obj 170 32 inlet;
#X connect 0 0 1 1;
#X connect 0 0 2 0;
#X connect 1 0 0 0;
#X connect 3 0 1 0;
#X connect 3 1 6 0;
#X connect 4 0 1 0;
#X connect 4 1 7 0;
#X connect 5 0 1 1;
#X connect 6 0 0 1;
#X connect 7 0 0 1;
#X connect 8 0 1 1;
#X connect 13 0 3 0;
#X connect 14 0 4 0;
#X connect 15 0 8 0;
#X connect 16 0 5 0;
#X restore 294 185 pd stepper;
#X f 12;
#X msg 332 144 0;
#X msg 340 83 1;
#X connect 0 0 2 0;
#X connect 2 0 4 0;
#X connect 3 0 0 0;
#X connect 6 0 8 0;
#X connect 8 0 4 0;
#X connect 9 0 3 0;
#X connect 9 0 20 0;
#X connect 9 0 13 0;
#X connect 9 0 18 3;
#X connect 10 0 12 0;
#X connect 10 0 18 2;
#X connect 12 0 4 0;
#X connect 13 0 10 0;
#X connect 14 0 19 0;
#X connect 15 0 18 1;
#X connect 16 0 18 0;
#X connect 18 0 17 0;
#X connect 18 0 10 0;
#X connect 19 0 18 2;
#X connect 19 0 10 0;
#X connect 20 0 6 0;
#X coords 0 -1 1 1 280 160 2 0 0;
#X restore 591 191 pd color-control;
#N canvas 2282 562 1172 855 optimize-control 0;
#X floatatom 185 65 7 0 180 0 - - -;
#X floatatom 185 98 7 0 0 0 - - -;
#X floatatom 185 131 7 0 0 0 - - -;
#X obj 185 32 tgl 23 0 empty empty empty 17 7 0 10 -262144 -1 -1 0
1;
#X text 19 65 Max angle;
#X msg 140 270 maxangle \$1;
#X text 19 98 Subdivide;
#X msg 140 313 subdivide \$1;
#X text 19 131 Dwell points;
#X msg 140 352 blanknum \$1;
#X obj 140 212 expr 1 - $i1;
#X msg 307 35 1;
#X msg 308 66 15;
#X msg 306 101 15;
#X msg 308 137 8;
#X msg 140 240 rawmode \$1;
#X obj 116 382 s \$0-out;
#X text 19 32 Enable;
#X text 4 0 OPTIMIZE;
#X obj 292 1 r \$0-helios-init;
#X connect 0 0 5 0;
#X connect 1 0 7 0;
#X connect 2 0 9 0;
#X connect 3 0 10 0;
#X connect 5 0 16 0;
#X connect 7 0 16 0;
#X connect 9 0 16 0;
#X connect 10 0 15 0;
#X connect 11 0 3 0;
#X connect 12 0 0 0;
#X connect 13 0 1 0;
#X connect 14 0 2 0;
#X connect 15 0 16 0;
#X connect 19 0 11 0;
#X connect 19 0 12 0;
#X connect 19 0 13 0;
#X connect 19 0 14 0;
#X coords 0 -1 1 1 280 170 2 0 0;
#X restore 591 11 pd optimize-control;
#N canvas 948 497 695 625 dac-control 0;
#X obj 189 20 tgl 23 0 empty empty empty 17 7 0 10 -262144 -1 -1 1
1;
#X msg 301 28 0;
#X obj 283 518 s \$0-out;
#X obj 400 45 t b b;
#X msg 431 72 0 0 0 0 0;
#X text 3 0 DAC;
#X text 13 21 Enable;
#X text 13 201 Single mode;
#X obj 189 201 tgl 23 0 empty empty empty 17 7 0 10 -262144 -1 -1 0
1;
#X msg 388 338 singlemode \$1;
#X msg 310 180 0;
#X obj 400 15 r \$0-helios-init;
#X floatatom 189 63 7 1 65 0 - - -;
#X text 13 66 KPPS;
#X msg 426 110 10, f 2;
#X msg 425 147 12, f 2;
#X msg 425 176 15, f 2;
#X msg 461 112 20, f 2;
#X msg 467 147 25, f 2;
#X msg 493 116 30, f 2;
#X msg 496 145 35, f 2;
#X msg 536 113 40, f 2;
#X msg 535 142 45, f 2;
#X obj 88 96 bng 23 250 50 0 empty empty 10 4 12 0 10 -262144 -1 -1
;
#X msg 571 116 50, f 2;
#X msg 566 146 55, f 2;
#X msg 599 116 60, f 2;
#X obj 510 178 + 0;
#X obj 114 96 bng 23 250 50 0 empty empty 20 4 12 0 10 -262144 -1 -1
;
#X obj 140 96 bng 23 250 50 0 empty empty 30 4 12 0 10 -262144 -1 -1
;
#X obj 166 96 bng 23 250 50 0 empty empty 40 4 12 0 10 -262144 -1 -1
;
#X obj 192 96 bng 23 250 50 0 empty empty 50 4 12 0 10 -262144 -1 -1
;
#X obj 218 96 bng 23 250 50 0 empty empty 60 4 12 0 10 -262144 -1 -1
;
#X obj 62 96 bng 23 250 50 0 empty empty 1 4 12 0 10 -262144 -1 -1
;
#X obj 88 122 bng 23 250 50 0 empty empty 12 4 12 0 10 -262144 -1 -1
;
#X obj 88 148 bng 23 250 50 0 empty empty 15 4 12 0 10 -262144 -1 -1
;
#X obj 114 122 bng 23 250 50 0 empty empty 25 4 12 0 10 -262144 -1
-1;
#X obj 140 122 bng 23 250 50 0 empty empty 35 4 12 0 10 -262144 -1
-1;
#X obj 166 122 bng 23 250 50 0 empty empty 45 4 12 0 10 -262144 -1
-1;
#X obj 192 122 bng 23 250 50 0 empty empty 55 4 12 0 10 -262144 -1
-1;
#X obj 218 122 bng 23 250 50 0 empty empty 65 4 12 0 10 -262144 -1
-1;
#X msg 399 115 1, f 2;
#X msg 605 147 65, f 2;
#X obj 390 256 * 1000;
#X msg 391 294 pps \$1;
#X obj 189 234 tgl 23 0 empty empty empty 17 7 0 10 -262144 -1 -1 0
1;
#X obj 189 267 tgl 23 0 empty empty empty 17 7 0 10 -262144 -1 -1 0
1;
#X msg 388 461 maxstatuspoll \$1;
#X text 13 267 Don't block;
#X msg 387 383 startimmediately \$1;
#X msg 386 422 dontblock \$1;
#X msg 309 224 0;
#X msg 307 257 0;
#X msg 306 286 512;
#X floatatom 189 300 7 0 0 0 - - -;
#X text 13 300 Max status poll;
#X text 13 234 Start Immediately;
#X connect 0 0 2 0;
#X connect 1 0 0 0;
#X connect 3 0 1 0;
#X connect 3 0 10 0;
#X connect 3 0 51 0;
#X connect 3 0 53 0;
#X connect 3 0 52 0;
#X connect 3 1 4 0;
#X connect 4 0 2 0;
#X connect 8 0 9 0;
#X connect 9 0 2 0;
#X connect 10 0 8 0;
#X connect 11 0 3 0;
#X connect 12 0 43 0;
#X connect 14 0 27 0;
#X connect 15 0 27 0;
#X connect 16 0 27 0;
#X connect 17 0 27 0;
#X connect 18 0 27 0;
#X connect 19 0 27 0;
#X connect 20 0 27 0;
#X connect 21 0 27 0;
#X connect 22 0 27 0;
#X connect 23 0 14 0;
#X connect 24 0 27 0;
#X connect 25 0 27 0;
#X connect 26 0 27 0;
#X connect 27 0 12 0;
#X connect 28 0 17 0;
#X connect 29 0 19 0;
#X connect 30 0 21 0;
#X connect 31 0 24 0;
#X connect 32 0 26 0;
#X connect 33 0 41 0;
#X connect 34 0 15 0;
#X connect 35 0 16 0;
#X connect 36 0 18 0;
#X connect 37 0 20 0;
#X connect 38 0 22 0;
#X connect 39 0 25 0;
#X connect 40 0 42 0;
#X connect 41 0 27 0;
#X connect 43 0 44 0;
#X connect 44 0 2 0;
#X connect 45 0 49 0;
#X connect 46 0 50 0;
#X connect 47 0 2 0;
#X connect 49 0 2 0;
#X connect 50 0 2 0;
#X connect 51 0 45 0;
#X connect 52 0 46 0;
#X connect 53 0 54 0;
#X connect 54 0 47 0;
#X coords 0 -1 1 1 280 380 2 0 0;
#X restore 11 11 pd dac-control;
#N canvas 1235 186 969 1733 helios-notes 0;
#X text 44 233 intensity: Scale RGB values. Range 0 - 255 \, default=255
;
#X text 48 44 pps: Points per second. Range 10 - 65535 \, default=20000
, f 43;
#X text 45 80 scale: Scale points. 1.0=original size.;
#X text 15 737 TODO;
#X text 35 764 - tangent error correction;
#X text 34 785 - check for null list on DAC enable to prevent crash
;
#X text 33 804 - separate RGB intensity;
#X text 36 824 - color channel delay;
#X text 36 844 - keystone transform;
#X text 15 15 HELIOS MESSAGES:;
#X text 44 438 subdivide: Set the subdivision length for straight lines.
Range 0 - 40096 \, default=15, f 43;
#X text 44 384 maxangle: Set the max angle for a corner before inserting
points. Range 0 - 180 \, default=15 degrees, f 44;
#X text 41 334 rawmode: Disable optimisation - maxangle \, subdivide
\, blanknum are ignored. Range 0 - 1 \, default=0, f 43;
#X text 44 185 flipx: Invert points X coordinates. Range 0 - 1 \, default=0
;
#X text 44 203 flipx: Invert points Y coordinates. Range 0 - 1 \, default=0
;
#X text 45 100 offsetx: Offset points X coordinates. Range -4096 -
4096 \, default=0, f 39;
#X text 45 140 offsety: Offset points Y coordinates. Range -4096 -
4096 \, default=0, f 40;
#X text 43 264 ttlthreshold: Color TTL ON threshold. Range 0 - 255
\, default=0 \, 0=OFF, f 40;
#X text 41 518 singlemode: Dont repeat frame if a new frame has not
been received. Default=0, f 42;
#X text 41 477 blanknum: Set the number of dwell points to insert at
corners - Default=8, f 44;
#X text 39 555 startimmediately: Start output immediately \, instead
of waiting for current frame (if there is one) to finish playing. Default=0
, f 41;
#X text 36 628 dontblock: Don't let WriteFrame() block execution while
waiting for the transfer to finish. Default=0, f 41;
#X text 35 679 maxstatuspoll: Set the maximum number of times to poll
the DAC ready status before sending the frame. Default=512, f 43;
#X text 43 301 blankoffset: Blanking/color timing offset. Default:
0;
#X restore 935 383 pd helios-notes;
#X obj 1011 136 s \$0-helios-init;
#X obj 960 52 t b b b, f 15;
#N canvas 550 187 793 518 geocorrection 1;
#X floatatom 160 117 6 0 0 0 - - -;
#X floatatom 220 117 6 0 0 0 - - -;
#X floatatom 160 146 6 0 0 0 - - -;
#X floatatom 220 146 6 -100 100 0 - - -;
#X floatatom 160 89 6 0 0 0 - - -;
#X floatatom 220 89 6 0 0 0 - - -;
#X text 3 0 GEOMETRIC CORRECTION;
#X floatatom 160 60 6 0 0 0 - - -;
#X floatatom 220 60 6 0 0 0 - - -;
#X floatatom 160 175 6 0 0 0 - - -;
#X floatatom 220 175 6 0 0 0 - - -;
#X text 20 62 Shear;
#X text 20 91 Keystone;
#X text 20 119 Linearity;
#X text 20 148 Bow;
#X text 20 177 Pincushion;
#X msg 324 130 0;
#X msg 366 132 0;
#X obj 404 10 r \$0-helios-init;
#X msg 363 166 0;
#X msg 364 199 0;
#X msg 326 66 0;
#X msg 371 68 0;
#X msg 323 97 0;
#X msg 365 98 0;
#X msg 323 165 0;
#X obj 477 120 / 100;
#X obj 414 425 s \$0-out;
#X obj 597 120 / 100;
#X obj 477 180 / 100;
#X obj 597 180 / 100;
#X obj 477 240 / 100;
#X obj 597 240 / 100;
#X obj 477 300 / 100;
#X obj 597 300 / 100;
#X obj 477 360 / 100;
#X obj 597 360 / 100;
#X msg 477 147 shearx \$1;
#X msg 597 147 sheary \$1;
#X msg 477 207 keystonex \$1;
#X msg 597 207 keystoney \$1;
#X msg 597 267 linearityy \$1;
#X msg 477 267 linearityx \$1;
#X msg 477 327 bowx \$1;
#X msg 597 327 bowy \$1;
#X msg 477 387 pincushionx \$1;
#X msg 597 387 pincushiony \$1;
#X floatatom 160 31 6 0 0 0 - - -;
#X floatatom 220 31 6 0 0 0 - - -;
#X msg 473 81 scalex \$1;
#X obj 477 53 / 100;
#X obj 599 56 / 100;
#X msg 595 81 scaley \$1;
#X text 20 33 Scale;
#X obj 160 204 bng 23 250 50 0 empty empty empty 17 7 0 10 -262144
-1 -1;
#X text 20 204 Reset;
#X obj 290 24 t b;
#X msg 325 36 100;
#X msg 366 36 100;
#X msg 322 200 -10;
#X connect 0 0 31 0;
#X connect 1 0 32 0;
#X connect 2 0 33 0;
#X connect 3 0 34 0;
#X connect 4 0 29 0;
#X connect 5 0 30 0;
#X connect 7 0 26 0;
#X connect 8 0 28 0;
#X connect 9 0 35 0;
#X connect 10 0 36 0;
#X connect 16 0 0 0;
#X connect 17 0 1 0;
#X connect 18 0 56 0;
#X connect 19 0 3 0;
#X connect 20 0 10 0;
#X connect 21 0 7 0;
#X connect 22 0 8 0;
#X connect 23 0 4 0;
#X connect 24 0 5 0;
#X connect 25 0 2 0;
#X connect 26 0 37 0;
#X connect 28 0 38 0;
#X connect 29 0 39 0;
#X connect 30 0 40 0;
#X connect 31 0 42 0;
#X connect 32 0 41 0;
#X connect 33 0 43 0;
#X connect 34 0 44 0;
#X connect 35 0 45 0;
#X connect 36 0 46 0;
#X connect 37 0 27 0;
#X connect 38 0 27 0;
#X connect 39 0 27 0;
#X connect 40 0 27 0;
#X connect 41 0 27 0;
#X connect 42 0 27 0;
#X connect 43 0 27 0;
#X connect 44 0 27 0;
#X connect 45 0 27 0;
#X connect 46 0 27 0;
#X connect 47 0 50 0;
#X connect 48 0 51 0;
#X connect 49 0 27 0;
#X connect 50 0 49 0;
#X connect 51 0 52 0;
#X connect 52 0 27 0;
#X connect 54 0 56 0;
#X connect 56 0 57 0;
#X connect 56 0 58 0;
#X connect 56 0 21 0;
#X connect 56 0 22 0;
#X connect 56 0 23 0;
#X connect 56 0 24 0;
#X connect 56 0 16 0;
#X connect 56 0 17 0;
#X connect 56 0 25 0;
#X connect 56 0 19 0;
#X connect 56 0 59 0;
#X connect 56 0 20 0;
#X connect 57 0 47 0;
#X connect 58 0 48 0;
#X connect 59 0 9 0;
#X coords 0 -1 1 1 280 240 2 0 0;
#X restore 301 181 pd geocorrection;
#X connect 0 0 15 0;
#X connect 1 0 2 0;
#X connect 3 0 6 0;
#X connect 4 0 8 0;
#X connect 5 0 6 1;
#X connect 6 0 4 0;
#X connect 7 0 5 0;
#X connect 8 0 1 0;
#X connect 8 1 9 0;
#X connect 9 0 10 0;
#X connect 12 0 11 0;
#X connect 13 0 22 0;
#X connect 22 0 7 0;
#X connect 22 1 21 0;
#X connect 22 2 12 0;
#X coords 0 -1 1 1 880 430 2 0 0;
#X restore 17 11 pd UI;
#X coords 0 456 1 455 85 60 0;
