#N canvas 1863 221 334 942 12;
#N canvas 855 260 729 1108 UI 0;
#X obj 424 838 r \$0-out;
#X msg 456 333 0;
#X obj 455 360 s kill;
#X obj 457 227 key;
#X obj 456 277 sel 27;
#X obj 497 199 tgl 23 0 empty empty empty 17 7 0 10 #fcfcfc #000000
#000000 0 1;
#X obj 457 252 spigot;
#X msg 499 148 1;
#X obj 456 304 t b b, f 8;
#X msg 510 334 0 0 0 0 0;
#X obj 510 360 s \$0-out;
#X obj 600 164 s \$0-out;
#X msg 600 139 0 0 0 0 0;
#X obj 497 76 loadbang;
#X text 331 199 ESC key killswitch;
#X obj 424 865 s helios-control;
#N canvas 485 673 1008 679 timing-control 0;
#X floatatom 190 17 5 1 65 0 - - - 24;
#X msg 327 75 10, f 2;
#X msg 352 75 12, f 2;
#X msg 377 75 15, f 2;
#X msg 327 97 20, f 2;
#X msg 352 97 25, f 2;
#X msg 377 97 30, f 2;
#X msg 327 119 35, f 2;
#X msg 352 119 40, f 2;
#X msg 377 119 45, f 2;
#X obj 165 61 bng 15 250 50 0 empty empty 10 17 7 0 10 #fcfcfc #000000
#000000;
#X obj 200 61 bng 15 250 50 0 empty empty 12 17 7 0 10 #fcfcfc #000000
#000000;
#X obj 235 61 bng 15 250 50 0 empty empty 15 17 7 0 10 #fcfcfc #000000
#000000;
#X obj 165 78 bng 15 250 50 0 empty empty 20 17 7 0 10 #fcfcfc #000000
#000000;
#X obj 200 78 bng 15 250 50 0 empty empty 25 17 7 0 10 #fcfcfc #000000
#000000;
#X obj 235 78 bng 15 250 50 0 empty empty 30 17 7 0 10 #fcfcfc #000000
#000000;
#X obj 165 95 bng 15 250 50 0 empty empty 35 17 7 0 10 #fcfcfc #000000
#000000;
#X obj 200 95 bng 15 250 50 0 empty empty 40 17 7 0 10 #fcfcfc #000000
#000000;
#X obj 235 95 bng 15 250 50 0 empty empty 45 17 7 0 10 #fcfcfc #000000
#000000;
#X obj 165 112 bng 15 250 50 0 empty empty 50 17 7 0 10 #fcfcfc #000000
#000000;
#X obj 200 112 bng 15 250 50 0 empty empty 55 17 7 0 10 #fcfcfc #000000
#000000;
#X obj 235 112 bng 15 250 50 0 empty empty 60 17 7 0 10 #fcfcfc #000000
#000000;
#X msg 328 141 50, f 2;
#X msg 353 141 55, f 2;
#X msg 378 141 60, f 2;
#X obj 347 165 + 0;
#X text 14 20 KPPS;
#X msg 328 43 20;
#X msg 166 197 pps \$1;
#X obj 167 174 * 1000;
#X text 4 0 TIMING;
#X obj 168 236 s \$0-out;
#X obj 328 14 r \$0-helios-init;
#X connect 0 0 29 0;
#X connect 1 0 25 0;
#X connect 2 0 25 0;
#X connect 3 0 25 0;
#X connect 4 0 25 0;
#X connect 5 0 25 0;
#X connect 6 0 25 0;
#X connect 7 0 25 0;
#X connect 8 0 25 0;
#X connect 9 0 25 0;
#X connect 10 0 1 0;
#X connect 11 0 2 0;
#X connect 12 0 3 0;
#X connect 13 0 4 0;
#X connect 14 0 5 0;
#X connect 15 0 6 0;
#X connect 16 0 7 0;
#X connect 17 0 8 0;
#X connect 18 0 9 0;
#X connect 19 0 22 0;
#X connect 20 0 23 0;
#X connect 21 0 24 0;
#X connect 22 0 25 0;
#X connect 23 0 25 0;
#X connect 24 0 25 0;
#X connect 25 0 0 0;
#X connect 27 0 0 0;
#X connect 28 0 31 0;
#X connect 29 0 28 0;
#X connect 32 0 27 0;
#X coords 0 -1 1 1 280 140 2 0 0;
#X restore 10 115 pd timing-control;
#N canvas 961 676 714 399 geometry-control 0;
#X floatatom 186 31 7 0 0 0 - - - 16;
#X msg 510 38 scale \$1;
#X obj 510 11 / 100;
#X text 20 32 Scale %;
#X floatatom 186 64 7 0 0 0 - - - 16;
#X floatatom 186 97 7 0 0 0 - - - 16;
#X text 20 66 Offset X;
#X text 20 100 Offset Y;
#X msg 363 80 0;
#X msg 364 111 0;
#X msg 509 83 offsetx \$1;
#X msg 511 115 offsety \$1;
#X obj 186 130 tgl 23 0 empty empty empty 17 7 0 10 #fcfcfc #000000
#000000 0 1;
#X obj 186 163 tgl 23 0 empty empty empty 17 7 0 10 #fcfcfc #000000
#000000 0 1;
#X msg 359 158 0;
#X text 20 130 Flip X;
#X text 20 163 Flip Y;
#X msg 507 210 flipx \$1;
#X msg 507 244 flipy \$1;
#X msg 358 194 1;
#X text 3 0 GEOMETRY;
#X obj 453 286 s \$0-out;
#X msg 355 39 100;
#X obj 315 5 r \$0-helios-init;
#X connect 0 0 2 0;
#X connect 1 0 21 0;
#X connect 2 0 1 0;
#X connect 4 0 10 0;
#X connect 5 0 11 0;
#X connect 8 0 4 0;
#X connect 9 0 5 0;
#X connect 10 0 21 0;
#X connect 11 0 21 0;
#X connect 12 0 17 0;
#X connect 13 0 18 0;
#X connect 14 0 12 0;
#X connect 17 0 21 0;
#X connect 18 0 21 0;
#X connect 19 0 13 0;
#X connect 22 0 0 0;
#X connect 23 0 8 0;
#X connect 23 0 9 0;
#X connect 23 0 14 0;
#X connect 23 0 19 0;
#X connect 23 0 22 0;
#X coords 0 -1 1 1 280 200 2 0 0;
#X restore 10 265 pd geometry-control;
#N canvas 581 443 1126 437 color-control 0;
#X floatatom 185 25 7 0 255 0 - - - 16;
#X text 19 26 Intensity;
#X msg 324 89 intensity \$1;
#X msg 338 27 255;
#X obj 296 176 s \$0-out;
#X text 4 0 COLOR;
#X floatatom 186 58 7 0 255 0 - - - 16;
#X text 20 59 TTL Threshold;
#X msg 322 126 ttlthreshold \$1;
#X msg 334 55 128;
#X obj 329 3 r \$0-helios-init;
#X connect 0 0 2 0;
#X connect 2 0 4 0;
#X connect 3 0 0 0;
#X connect 6 0 8 0;
#X connect 8 0 4 0;
#X connect 9 0 6 0;
#X connect 10 0 3 0;
#X connect 10 0 9 0;
#X coords 0 -1 1 1 280 90 2 0 0;
#X restore 10 475 pd color-control;
#N canvas 2282 562 1172 855 optimize-control 0;
#X floatatom 185 65 7 0 0 0 - - - 16;
#X floatatom 185 98 7 0 0 0 - - - 16;
#X floatatom 185 131 7 0 0 0 - - - 16;
#X obj 185 32 tgl 23 0 empty empty empty 17 7 0 10 #fcfcfc #000000
#000000 0 1;
#X text 19 65 Max angle;
#X msg 140 270 maxangle \$1;
#X text 19 98 Subdivide;
#X msg 140 313 subdivide \$1;
#X text 19 131 Dwell points;
#X msg 140 352 blanknum \$1;
#X obj 140 212 expr 1 - $i1;
#X msg 307 35 1;
#X msg 308 66 15;
#X msg 306 101 15;
#X msg 308 137 8;
#X msg 140 240 rawmode \$1;
#X obj 116 382 s \$0-out;
#X text 19 32 Enable;
#X text 4 0 OPTIMIZE;
#X obj 292 1 r \$0-helios-init;
#X connect 0 0 5 0;
#X connect 1 0 7 0;
#X connect 2 0 9 0;
#X connect 3 0 10 0;
#X connect 5 0 16 0;
#X connect 7 0 16 0;
#X connect 9 0 16 0;
#X connect 10 0 15 0;
#X connect 11 0 3 0;
#X connect 12 0 0 0;
#X connect 13 0 1 0;
#X connect 14 0 2 0;
#X connect 15 0 16 0;
#X connect 19 0 11 0;
#X connect 19 0 12 0;
#X connect 19 0 13 0;
#X connect 19 0 14 0;
#X coords 0 -1 1 1 280 160 2 0 0;
#X restore 10 575 pd optimize-control;
#N canvas 2602 919 1217 837 heliosflags-control 0;
#X obj 260 359 s \$0-out;
#X msg 329 182 singlemode \$1;
#X obj 182 26 tgl 23 0 empty empty empty 17 7 0 10 #fcfcfc #000000
#000000 0 1;
#X obj 182 59 tgl 23 0 empty empty empty 17 7 0 10 #fcfcfc #000000
#000000 0 1;
#X msg 325 332 maxstatuspoll \$1;
#X text 16 59 Don't block;
#X msg 324 217 startimmediately \$1;
#X msg 326 281 dontblock \$1;
#X msg 304 24 0;
#X msg 308 51 0;
#X msg 307 75 512;
#X floatatom 182 92 7 0 0 0 - - - 16;
#X text 16 92 Max status poll;
#X text 16 26 Start Immediately;
#X text 3 0 EXPERIMENTAL;
#X obj 413 28 r \$0-helios-init;
#X connect 1 0 0 0;
#X connect 2 0 6 0;
#X connect 3 0 7 0;
#X connect 4 0 0 0;
#X connect 6 0 0 0;
#X connect 7 0 0 0;
#X connect 8 0 2 0;
#X connect 9 0 3 0;
#X connect 10 0 11 0;
#X connect 11 0 4 0;
#X connect 15 0 8 0;
#X connect 15 0 9 0;
#X connect 15 0 10 0;
#X coords 0 -1 1 1 280 130 2 0 0;
#X restore 10 745 pd heliosflags-control;
#N canvas 464 329 1333 845 dac-control 0;
#X obj 189 20 tgl 23 0 empty empty empty 17 7 0 10 #fcfcfc #000000
#000000 0 1;
#X msg 339 28 0;
#X obj 432 142 s \$0-out;
#X obj 404 43 t b b;
#X msg 435 70 0 0 0 0 0;
#X obj 278 151 loadbang;
#X text 3 0 DAC;
#X text 13 21 Enable;
#X text 13 53 Single mode;
#X obj 189 53 tgl 23 0 empty empty empty 17 7 0 10 #fcfcfc #000000
#000000 0 1;
#X msg 180 93 singlemode \$1;
#X msg 335 72 0;
#X obj 404 13 r \$0-helios-init;
#X connect 0 0 2 0;
#X connect 1 0 0 0;
#X connect 3 0 1 0;
#X connect 3 0 11 0;
#X connect 3 1 4 0;
#X connect 4 0 2 0;
#X connect 9 0 10 0;
#X connect 10 0 2 0;
#X connect 11 0 9 0;
#X connect 12 0 3 0;
#X coords 0 -1 1 1 280 90 2 0 0;
#X restore 10 15 pd dac-control;
#N canvas 1235 186 969 1733 helios-notes 0;
#X text 44 233 intensity: Scale RGB values. Range 0 - 255 \, default=255
;
#X text 48 44 pps: Points per second. Range 10 - 65535 \, default=20000
, f 43;
#X text 45 80 scale: Scale points. 1.0=original size.;
#X text 15 703 TODO;
#X text 35 730 - tangent error correction;
#X text 34 751 - check for null list on DAC enable to prevent crash
;
#X text 33 770 - separate RGB intensity;
#X text 36 790 - color channel delay;
#X text 36 810 - keystone transform;
#X text 15 15 HELIOS MESSAGES:;
#X text 44 404 subdivide: Set the subdivision length for straight lines.
Range 0 - 40096 \, default=15, f 43;
#X text 44 350 maxangle: Set the max angle for a corner before inserting
points. Range 0 - 180 \, default=15 degrees, f 44;
#X text 41 300 rawmode: Disable optimisation - maxangle \, subdivide
\, blanknum are ignored. Range 0 - 1 \, default=0, f 43;
#X text 44 185 flipx: Invert points X coordinates. Range 0 - 1 \, default=0
;
#X text 44 203 flipx: Invert points Y coordinates. Range 0 - 1 \, default=0
;
#X text 45 100 offsetx: Offset points X coordinates. Range -4096 -
4096 \, default=0, f 39;
#X text 45 140 offsety: Offset points Y coordinates. Range -4096 -
4096 \, default=0, f 40;
#X text 43 264 ttlthreshold: Color TTL ON threshold. Range 0 - 255
\, default=0 \, 0=OFF, f 40;
#X text 41 484 singlemode: Dont repeat frame if a new frame has not
been received. Default=0, f 42;
#X text 41 443 blanknum: Set the number of dwell points to insert at
corners - Default=8, f 44;
#X text 39 521 startimmediately: Start output immediately \, instead
of waiting for current frame (if there is one) to finish playing. Default=0
, f 41;
#X text 36 594 dontblock: Don't let WriteFrame() block execution while
waiting for the transfer to finish. Default=0, f 41;
#X text 35 645 maxstatuspoll: Set the maximum number of times to poll
the DAC ready status before sending the frame. Default=512, f 43;
#X restore 335 21 pd helios-notes;
#X obj 549 192 s \$0-helios-init;
#X obj 498 103 t b b b, f 15;
#X connect 0 0 15 0;
#X connect 1 0 2 0;
#X connect 3 0 6 0;
#X connect 4 0 8 0;
#X connect 5 0 6 1;
#X connect 6 0 4 0;
#X connect 7 0 5 0;
#X connect 8 0 1 0;
#X connect 8 1 9 0;
#X connect 9 0 10 0;
#X connect 12 0 11 0;
#X connect 13 0 24 0;
#X connect 24 0 7 0;
#X connect 24 1 23 0;
#X connect 24 2 12 0;
#X coords 0 -1 1 1 300 900 2 0 0;
#X restore 9 12 pd UI;
#X coords 0 942 1 941 85 60 0;
