#N canvas 0 42 699 464 12;
#X obj 9 91 tgl 15 0 empty empty empty 17 7 0 10 #fcfcfc #000000 #000000
0 1;
#X floatatom 31 150 5 0 0 0 - - - 0;
#X msg 178 45 intensity \$1;
#X floatatom 176 17 5 0 0 0 - - - 0;
#X obj 182 78 r settings;
#N canvas 722 68 779 1170 oscbuffer 0;
#X obj 10 45 oscparse;
#X obj 200 190 list length;
#X obj 42 102 list trim;
#X obj 42 190 array set pointsx;
#X obj 43 219 array set pointsy;
#X obj 201 220 change;
#X obj 44 249 array set blank;
#X obj 46 277 array set red;
#X obj 46 302 array set green;
#X obj 46 330 array set blue;
#X obj 44 130 route pointsx pointsy blank red green blue pps;
#X obj 317 163 change;
#X obj 317 192 s pps;
#X obj 13 399 array define -yrange -1.01 1.01 -k pointsx 4;
#A 0 -0.722656 -0.763672 0.767578 -0.722656;
#X obj 14 426 array define -yrange -1.01 1.01 -k pointsy 4;
#A 0 -0.802734 0.722656 0.705078 -0.802734;
#X obj 13 454 array define -yrange -0.01 1.01 -k blank 4;
#A 0 0 0 0 0;
#X obj 13 484 array define -yrange -0.01 1.01 -k red 4;
#A 0 1.0066 0 0 0;
#X obj 12 511 array define -yrange -0.01 1.01 -k green 4;
#A 0 0.9522 0 0 0;
#X obj 11 543 array define -yrange -0.01 1.01 -k blue 4;
#A 0 0.5238 0 0 0;
#X obj 10 73 t b l;
#X obj 10 17 netreceive -u -b 12000;
#X obj 201 245 t f f, f 6;
#X obj 44 158 t l l;
#N canvas 2438 1017 349 385 resize 0;
#X obj 19 13 inlet;
#X obj 19 64 array size pointsx;
#X obj 19 43 array size pointsy;
#X obj 19 85 array size blank;
#X obj 19 106 array size red;
#X obj 19 127 array size green;
#X obj 19 148 array size blue;
#X connect 0 0 2 0;
#X connect 0 0 1 0;
#X connect 0 0 3 0;
#X connect 0 0 4 0;
#X connect 0 0 5 0;
#X connect 0 0 6 0;
#X restore 238 274 pd resize;
#X obj 11 364 outlet;
#X obj 202 363 outlet;
#X text 254 362 num points;
#X text 66 362 bang;
#X connect 0 0 19 0;
#X connect 1 0 5 0;
#X connect 2 0 10 0;
#X connect 5 0 21 0;
#X connect 10 0 22 0;
#X connect 10 1 4 0;
#X connect 10 2 6 0;
#X connect 10 3 7 0;
#X connect 10 4 8 0;
#X connect 10 5 9 0;
#X connect 10 6 11 0;
#X connect 11 0 12 0;
#X connect 19 0 24 0;
#X connect 19 1 2 0;
#X connect 20 0 0 0;
#X connect 21 0 25 0;
#X connect 21 1 23 0;
#X connect 22 0 3 0;
#X connect 22 1 1 0;
#X restore 27 14 pd oscbuffer;
#X obj 8 185 array define -yrange -2048 2047 heliosdata 20;
#N canvas 1617 62 630 1289 scan 0;
#X obj 20 9 inlet;
#X obj 80 200 + 1;
#X obj 20 199 float 0;
#X obj 20 258 tabread pointsx;
#X obj 44 285 tabread pointsy;
#X obj 69 312 tabread red;
#X obj 93 338 tabread green;
#X obj 118 363 tabread blue;
#X obj 20 478 pack f f f f f;
#X obj 20 339 * 2047;
#X obj 44 364 * 2047;
#X obj 69 390 * 255;
#X obj 93 415 * 255;
#X obj 118 441 * 255;
#X obj 50 537 array set heliosdata;
#X obj 143 468 * 5;
#X obj 20 229 t f f f f f f, f 18;
#X obj 18 506 t b l;
#X obj 140 178 array size heliosdata;
#X obj 139 148 * 5;
#X obj 20 171 until;
#X obj 20 143 float;
#X msg 66 171 0;
#X text 66 8 bang;
#X obj 18 591 outlet;
#X obj 108 117 t f f;
#X obj 18 564 array get heliosdata;
#X obj 20 37 t b b b, f 13;
#X obj 108 66 array size pointsx;
#X obj 109 91 change;
#X connect 0 0 27 0;
#X connect 1 0 2 1;
#X connect 2 0 1 0;
#X connect 2 0 16 0;
#X connect 3 0 9 0;
#X connect 4 0 10 0;
#X connect 5 0 11 0;
#X connect 6 0 12 0;
#X connect 7 0 13 0;
#X connect 8 0 17 0;
#X connect 9 0 8 0;
#X connect 10 0 8 1;
#X connect 11 0 8 2;
#X connect 12 0 8 3;
#X connect 13 0 8 4;
#X connect 15 0 14 1;
#X connect 16 0 3 0;
#X connect 16 1 4 0;
#X connect 16 2 5 0;
#X connect 16 3 6 0;
#X connect 16 4 7 0;
#X connect 16 5 15 0;
#X connect 17 0 26 0;
#X connect 17 1 14 0;
#X connect 19 0 18 0;
#X connect 20 0 2 0;
#X connect 21 0 20 0;
#X connect 22 0 2 1;
#X connect 25 0 21 1;
#X connect 25 1 19 0;
#X connect 26 0 24 0;
#X connect 27 0 21 0;
#X connect 27 1 22 0;
#X connect 27 2 28 0;
#X connect 28 0 29 0;
#X connect 29 0 25 0;
#X restore 27 48 pd scan;
#X obj 31 123 helios 12000;
#X floatatom 104 45 5 0 0 0 - - - 0;
#N canvas 777 62 1212 760 helios-settings 0;
#X obj 18 291 s settings;
#X floatatom 49 163 5 0 0 0 - - - 0;
#X text 101 163 <---------;
#X floatatom 38 90 5 0 0 0 - - - 0;
#X text 101 90 <---------;
#X floatatom 21 21 5 0 0 0 - - - 0;
#X text 101 21 <---------;
#X msg 21 49 maxangle \$1;
#X text 172 21 set the max angle for a corner before inserting points
- default 15 degrees;
#X msg 38 118 subdivide \$1;
#X text 172 90 set the subdivision length for straight lines - default
15;
#X msg 49 191 blanknum \$1;
#X text 172 163 set the number of dwell points to insert at corners
- default 8;
#X text 150 240 pd_helios processes drawing shapes and adds extra points
for the laser to be able to keep within it's mechanical limits. Generally
\, increasing these makes better drawings \, but slows the laser down.
If you reduce them to the point the laser makes a noise \, you're doing
it wrong :-);
#X connect 1 0 11 0;
#X connect 3 0 9 0;
#X connect 5 0 7 0;
#X connect 7 0 0 0;
#X connect 9 0 0 0;
#X connect 11 0 0 0;
#X restore 177 124 pd helios-settings;
#X connect 0 0 8 0;
#X connect 2 0 8 0;
#X connect 3 0 2 0;
#X connect 4 0 8 0;
#X connect 5 0 7 0;
#X connect 5 1 9 0;
#X connect 7 0 8 0;
#X connect 8 0 1 0;
#X coords 0 116 0.5 115.5 85 60 0;
