#N canvas 2428 516 344 713 12;
#N canvas 791 200 1924 1816 UI 0;
#X text 661 197 0=normal \, 1=raw mode - maxangle \, subdivide \, blanknum
are ignored - default 0, f 43;
#X text 661 556 Dont repeat frame if a new frame has not been received
, f 42;
#X text 660 238 Set the max angle for a corner before inserting points
- default 15 degrees, f 44;
#X text 659 277 Set the subdivision length for straight lines - default
15, f 43;
#X text 661 321 Set the number of dwell points to insert at corners
- default 8, f 44;
#X text 658 687 Set the maximum number of times to poll the DAC ready
status before sending the frame - default 512, f 43;
#X text 659 650 Don't let WriteFrame() block execution while waiting
for the transfer to finish, f 41;
#X text 659 593 Start output immediately \, instead of waiting for
current frame (if there is one) to finish playing, f 41;
#X floatatom 186 63 5 1 65 0 - - - 24;
#X msg 510 181 pps \$1;
#X text 661 86 Scale RGB values. Range 0 - 255 \, default=255;
#X text 662 47 Points per second. Range 10000 - 65535 \, default=20000
, f 43;
#X obj 329 842 r \$0-out;
#X obj 510 204 s \$0-out;
#X floatatom 186 234 7 0 0 0 - - - 16;
#X obj 507 332 s \$0-out;
#X text 20 235 Intensity;
#X msg 507 309 intensity \$1;
#X obj 505 414 s \$0-out;
#X floatatom 186 320 7 0 0 0 - - - 16;
#X obj 505 460 s \$0-out;
#X floatatom 186 353 7 0 0 0 - - - 16;
#X obj 505 506 s \$0-out;
#X floatatom 186 386 7 0 0 0 - - - 16;
#X obj 505 552 s \$0-out;
#X obj 505 718 s \$0-out;
#X obj 186 287 tgl 23 0 empty empty empty 17 7 0 10 #fcfcfc #000000
#000000 0 1;
#X text 20 320 Max angle;
#X msg 505 437 maxangle \$1;
#X text 20 353 Subdivide;
#X msg 505 483 subdivide \$1;
#X text 20 386 Dwell points;
#X msg 505 529 blanknum \$1;
#X text 20 287 Optimize;
#X obj 505 365 expr 1 - $i1;
#X text 20 505 Single mode;
#X obj 186 505 tgl 23 0 empty empty empty 17 7 0 10 #fcfcfc #000000
#000000 0 1;
#X msg 505 695 singlemode \$1;
#X obj 506 864 s \$0-out;
#X obj 505 769 s \$0-out;
#X obj 186 538 tgl 23 0 empty empty empty 17 7 0 10 #fcfcfc #000000
#000000 0 1;
#X obj 505 815 s \$0-out;
#X obj 186 571 tgl 23 0 empty empty empty 17 7 0 10 #fcfcfc #000000
#000000 0 1;
#X msg 506 841 maxstatuspoll \$1;
#X text 20 571 Don't block;
#X msg 505 746 startimmediately \$1;
#X msg 505 792 dontblock \$1;
#X msg 431 110 255;
#X msg 434 231 1;
#X msg 434 300 15;
#X msg 432 335 15;
#X msg 434 371 8;
#X msg 426 498 0;
#X msg 425 534 0;
#X msg 429 561 0;
#X msg 428 585 512;
#X floatatom 186 604 7 0 0 0 - - - 16;
#X msg 131 849 0;
#X obj 130 876 s kill;
#X obj 132 743 key;
#X obj 131 793 sel 27;
#X obj 186 638 tgl 23 0 empty empty empty 17 7 0 10 #fcfcfc #000000
#000000 0 1;
#X obj 132 768 spigot;
#X msg 432 624 1;
#X obj 131 820 t b b, f 8;
#X msg 184 851 0 0 0 0 0;
#X text 659 738 Killswitch - Esc key centers the galvos \, turns off
the beam \, then disables the DAC.;
#X obj 184 877 s \$0-out;
#X obj 186 18 tgl 23 0 empty empty empty 17 7 0 10 #fcfcfc #000000
#000000 0 1;
#X text 20 19 Enable DAC;
#X msg 427 32 0;
#X obj 511 128 s \$0-out;
#X obj 480 63 t b b;
#X msg 511 102 0 0 0 0 0;
#X obj 479 36 loadbang;
#X msg 316 114 10, f 2;
#X msg 341 114 12, f 2;
#X msg 366 114 15, f 2;
#X msg 316 136 20, f 2;
#X msg 341 136 25, f 2;
#X msg 366 136 30, f 2;
#X msg 316 158 35, f 2;
#X msg 341 158 40, f 2;
#X msg 366 158 45, f 2;
#X obj 186 107 bng 15 250 50 0 empty empty 10 17 7 0 10 #fcfcfc #000000
#000000;
#X obj 221 107 bng 15 250 50 0 empty empty 12 17 7 0 10 #fcfcfc #000000
#000000;
#X obj 256 107 bng 15 250 50 0 empty empty 15 17 7 0 10 #fcfcfc #000000
#000000;
#X obj 186 124 bng 15 250 50 0 empty empty 20 17 7 0 10 #fcfcfc #000000
#000000;
#X obj 221 124 bng 15 250 50 0 empty empty 25 17 7 0 10 #fcfcfc #000000
#000000;
#X obj 256 124 bng 15 250 50 0 empty empty 30 17 7 0 10 #fcfcfc #000000
#000000;
#X obj 186 141 bng 15 250 50 0 empty empty 35 17 7 0 10 #fcfcfc #000000
#000000;
#X obj 221 141 bng 15 250 50 0 empty empty 40 17 7 0 10 #fcfcfc #000000
#000000;
#X obj 256 141 bng 15 250 50 0 empty empty 45 17 7 0 10 #fcfcfc #000000
#000000;
#X obj 186 158 bng 15 250 50 0 empty empty 50 17 7 0 10 #fcfcfc #000000
#000000;
#X obj 221 158 bng 15 250 50 0 empty empty 55 17 7 0 10 #fcfcfc #000000
#000000;
#X obj 256 158 bng 15 250 50 0 empty empty 60 17 7 0 10 #fcfcfc #000000
#000000;
#X msg 317 180 50, f 2;
#X msg 342 180 55, f 2;
#X msg 367 180 60, f 2;
#X obj 336 204 + 0;
#X obj 511 158 * 1000;
#X text 20 66 KPPS;
#X text 20 638 ESC key killswitch;
#X text 20 604 Max status poll;
#X text 20 538 Start Immediately;
#X obj 329 869 s helios-control;
#X msg 505 391 rawmode \$1;
#X msg 429 69 20;
#X obj 186 439 tgl 23 0 empty empty empty 17 7 0 10 #fcfcfc #000000
#000000 0 1;
#X obj 186 472 tgl 23 0 empty empty empty 17 7 0 10 #fcfcfc #000000
#000000 0 1;
#X msg 426 432 0;
#X msg 425 468 0;
#X text 20 439 Flip X;
#X text 20 472 Flip Y;
#X obj 505 603 s \$0-out;
#X obj 505 651 s \$0-out;
#X msg 505 580 flipx \$1;
#X msg 505 628 flipy \$1;
#X floatatom 186 201 7 0 0 0 - - - 16;
#X obj 510 279 s \$0-out;
#X msg 510 256 scale \$1;
#X msg 427 174 100;
#X obj 510 229 / 100;
#X text 20 202 Scale %;
#X connect 8 0 100 0;
#X connect 9 0 13 0;
#X connect 12 0 105 0;
#X connect 14 0 17 0;
#X connect 17 0 15 0;
#X connect 19 0 28 0;
#X connect 21 0 30 0;
#X connect 23 0 32 0;
#X connect 26 0 34 0;
#X connect 28 0 20 0;
#X connect 30 0 22 0;
#X connect 32 0 24 0;
#X connect 34 0 106 0;
#X connect 36 0 37 0;
#X connect 37 0 25 0;
#X connect 40 0 45 0;
#X connect 42 0 46 0;
#X connect 43 0 38 0;
#X connect 45 0 39 0;
#X connect 46 0 41 0;
#X connect 47 0 14 0;
#X connect 48 0 26 0;
#X connect 49 0 19 0;
#X connect 50 0 21 0;
#X connect 51 0 23 0;
#X connect 52 0 36 0;
#X connect 53 0 40 0;
#X connect 54 0 42 0;
#X connect 55 0 56 0;
#X connect 56 0 43 0;
#X connect 57 0 58 0;
#X connect 59 0 62 0;
#X connect 60 0 64 0;
#X connect 61 0 62 1;
#X connect 62 0 60 0;
#X connect 63 0 61 0;
#X connect 64 0 57 0;
#X connect 64 1 65 0;
#X connect 65 0 67 0;
#X connect 68 0 71 0;
#X connect 70 0 68 0;
#X connect 72 0 107 0;
#X connect 72 0 47 0;
#X connect 72 0 48 0;
#X connect 72 0 49 0;
#X connect 72 0 50 0;
#X connect 72 0 51 0;
#X connect 72 0 52 0;
#X connect 72 0 53 0;
#X connect 72 0 54 0;
#X connect 72 0 55 0;
#X connect 72 0 63 0;
#X connect 72 0 70 0;
#X connect 72 0 121 0;
#X connect 72 1 73 0;
#X connect 73 0 71 0;
#X connect 74 0 72 0;
#X connect 75 0 99 0;
#X connect 76 0 99 0;
#X connect 77 0 99 0;
#X connect 78 0 99 0;
#X connect 79 0 99 0;
#X connect 80 0 99 0;
#X connect 81 0 99 0;
#X connect 82 0 99 0;
#X connect 83 0 99 0;
#X connect 84 0 75 0;
#X connect 85 0 76 0;
#X connect 86 0 77 0;
#X connect 87 0 78 0;
#X connect 88 0 79 0;
#X connect 89 0 80 0;
#X connect 90 0 81 0;
#X connect 91 0 82 0;
#X connect 92 0 83 0;
#X connect 93 0 96 0;
#X connect 94 0 97 0;
#X connect 95 0 98 0;
#X connect 96 0 99 0;
#X connect 97 0 99 0;
#X connect 98 0 99 0;
#X connect 99 0 8 0;
#X connect 100 0 9 0;
#X connect 106 0 18 0;
#X connect 107 0 8 0;
#X connect 108 0 116 0;
#X connect 109 0 117 0;
#X connect 110 0 108 0;
#X connect 111 0 109 0;
#X connect 116 0 114 0;
#X connect 117 0 115 0;
#X connect 118 0 122 0;
#X connect 120 0 119 0;
#X connect 121 0 118 0;
#X connect 122 0 120 0;
#X coords 0 -1 1 1 300 680 2 0 0;
#X restore 9 12 pd UI;
#X coords 0 713 1 712 85 60 0;
