#N canvas 130 54 844 508 12;
#N canvas 234 77 1152 629 UI 1;
#X obj 915 342 r \$0-out;
#X obj 1018 107 s \$0-out;
#X msg 1018 82 0 0 0 0 0;
#X obj 915 24 loadbang;
#N canvas 588 362 687 413 geometry-control 0;
#X floatatom 140 31 6 0 0 0 - - -;
#X msg 418 91 scale \$1;
#X obj 418 64 / 100;
#X floatatom 140 60 6 0 0 0 - - -;
#X floatatom 200 60 6 0 0 0 - - -;
#X msg 347 107 0;
#X msg 384 108 0;
#X msg 424 190 offsetx \$1;
#X msg 511 187 offsety \$1;
#X obj 140 118 tgl 23 0 empty empty empty 17 7 0 10 -262144 -1 -1 0
1;
#X obj 200 118 tgl 23 0 empty empty empty 17 7 0 10 -262144 -1 -1 1
1;
#X msg 352 183 0;
#X msg 425 229 flipx \$1;
#X msg 503 225 flipy \$1;
#X msg 351 219 1;
#X obj 402 363 s \$0-out;
#X obj 315 5 r \$0-helios-init;
#X msg 350 77 25;
#X text 20 62 Offset;
#X text 20 118 Flip;
#X text 3 0 BASIC TRANSFORM;
#X obj 315 41 t b;
#X obj 140 151 bng 23 250 50 0 empty empty empty 17 7 0 10 -262144
-1 -1;
#X text 20 151 Reset;
#X text 20 32 Scale;
#X floatatom 140 89 6 0 0 0 - - -;
#X text 20 90 Rotation;
#X msg 347 146 0;
#X msg 425 142 rotation \$1;
#X connect 0 0 2 0;
#X connect 1 0 15 0;
#X connect 2 0 1 0;
#X connect 3 0 7 0;
#X connect 4 0 8 0;
#X connect 5 0 3 0;
#X connect 6 0 4 0;
#X connect 7 0 15 0;
#X connect 8 0 15 0;
#X connect 9 0 12 0;
#X connect 10 0 13 0;
#X connect 11 0 9 0;
#X connect 12 0 15 0;
#X connect 13 0 15 0;
#X connect 14 0 10 0;
#X connect 16 0 21 0;
#X connect 17 0 0 0;
#X connect 21 0 5 0;
#X connect 21 0 6 0;
#X connect 21 0 11 0;
#X connect 21 0 14 0;
#X connect 21 0 17 0;
#X connect 21 0 27 0;
#X connect 22 0 21 0;
#X connect 25 0 28 0;
#X connect 27 0 25 0;
#X connect 28 0 15 0;
#X coords 0 -1 1 1 260 190 2 0 0;
#X restore 281 11 pd geometry-control;
#N canvas 485 360 646 519 color-control 1;
#X floatatom 185 25 7 0 255 0 - - -;
#X text 19 26 Intensity;
#X msg 467 61 intensity \$1;
#X msg 328 8 255;
#X obj 457 438 s \$0-out;
#X text 4 0 COLOR;
#X floatatom 186 58 7 0 255 0 - - -;
#X text 20 59 TTL Threshold;
#X msg 465 98 ttlthreshold \$1;
#X obj 465 17 r \$0-helios-init;
#X floatatom 186 91 7 0 0 0 - - -;
#X text 20 94 Blanking offset;
#X msg 468 134 blankoffset \$1;
#X msg 321 66 0;
#X obj 189 124 bng 23 250 50 0 empty empty 0 4 12 0 10 -262144 -1 -1
;
#X obj 215 124 bng 23 250 50 0 empty empty +1 4 12 0 10 -262144 -1
-1;
#X obj 163 124 bng 23 250 50 0 empty empty -1 4 12 0 10 -262144 -1
-1;
#N canvas 229 158 327 274 stepper 1;
#X obj 80 146 + 1;
#X obj 18 145 float 0;
#X obj 79 193 outlet;
#X obj 18 66 t b b;
#X obj 76 62 t b b;
#X msg 170 63 0;
#X msg 50 94 -1;
#X msg 108 95 1;
#X obj 121 62 t f f;
#X text 14 11 prev;
#X text 75 11 next;
#X text 124 9 goto;
#X text 167 9 reset;
#X obj 15 29 inlet;
#X obj 76 29 inlet;
#X obj 123 30 inlet;
#X obj 170 32 inlet;
#X connect 0 0 1 1;
#X connect 0 0 2 0;
#X connect 1 0 0 0;
#X connect 3 0 1 0;
#X connect 3 1 6 0;
#X connect 4 0 1 0;
#X connect 4 1 7 0;
#X connect 5 0 1 1;
#X connect 6 0 0 1;
#X connect 7 0 0 1;
#X connect 8 0 1 1;
#X connect 13 0 3 0;
#X connect 14 0 4 0;
#X connect 15 0 8 0;
#X connect 16 0 5 0;
#X restore 279 157 pd stepper;
#X f 12;
#X msg 330 124 0;
#X msg 327 36 1;
#X obj 172 183 tgl 15 0 empty empty empty 17 7 0 10 -262144 -1 -1 1
1;
#X obj 197 183 tgl 15 0 empty empty empty 17 7 0 10 -262144 -1 -1 0
1;
#X obj 222 183 tgl 15 0 empty empty empty 17 7 0 10 -262144 -1 -1 0
1;
#N canvas 0 54 453 312 remap-red 1;
#X obj 31 55 route 1 0;
#X obj 83 173 t b f;
#X obj 31 112 v rmap;
#X obj 31 84 t b;
#X obj 194 233 v rmap;
#X obj 32 172 t b f;
#X obj 87 84 t b;
#X obj 87 112 v rmap;
#X obj 151 55 route 1 0;
#X obj 203 173 t b f;
#X obj 151 112 v rmap;
#X obj 151 84 t b;
#X obj 152 172 t b f;
#X obj 207 84 t b;
#X obj 207 112 v rmap;
#X obj 152 143 | 2;
#X obj 206 144 & 5;
#X obj 271 55 route 1 0;
#X obj 323 173 t b f;
#X obj 271 112 v rmap;
#X obj 271 84 t b;
#X obj 272 172 t b f;
#X obj 327 84 t b;
#X obj 327 112 v rmap;
#X obj 32 143 | 1;
#X obj 86 144 & 6;
#X obj 272 143 | 4;
#X msg 75 229 0;
#X obj 326 144 & 3;
#X obj 33 16 inlet;
#X obj 157 23 inlet;
#X obj 280 21 inlet;
#X obj 184 274 outlet;
#X connect 0 0 3 0;
#X connect 0 1 6 0;
#X connect 1 0 4 0;
#X connect 1 1 4 0;
#X connect 2 0 24 0;
#X connect 3 0 2 0;
#X connect 4 0 32 0;
#X connect 5 0 4 0;
#X connect 5 1 4 0;
#X connect 6 0 7 0;
#X connect 7 0 25 0;
#X connect 8 0 11 0;
#X connect 8 1 13 0;
#X connect 9 0 4 0;
#X connect 9 1 4 0;
#X connect 10 0 15 0;
#X connect 11 0 10 0;
#X connect 12 0 4 0;
#X connect 12 1 4 0;
#X connect 13 0 14 0;
#X connect 14 0 16 0;
#X connect 15 0 12 0;
#X connect 16 0 9 0;
#X connect 17 0 20 0;
#X connect 17 1 22 0;
#X connect 18 0 4 0;
#X connect 18 1 4 0;
#X connect 19 0 26 0;
#X connect 20 0 19 0;
#X connect 21 0 4 0;
#X connect 21 1 4 0;
#X connect 22 0 23 0;
#X connect 23 0 28 0;
#X connect 24 0 5 0;
#X connect 25 0 1 0;
#X connect 26 0 21 0;
#X connect 27 0 4 0;
#X connect 28 0 18 0;
#X connect 29 0 0 0;
#X connect 30 0 8 0;
#X connect 31 0 17 0;
#X restore 475 177 pd remap-red;
#X obj 172 208 tgl 15 0 empty empty empty 17 7 0 10 -262144 -1 -1 0
1;
#X obj 197 208 tgl 15 0 empty empty empty 17 7 0 10 -262144 -1 -1 1
1;
#X obj 222 208 tgl 15 0 empty empty empty 17 7 0 10 -262144 -1 -1 0
1;
#N canvas 0 54 450 300 remap-green 0;
#X obj 31 55 route 1 0;
#X obj 83 173 t b f;
#X obj 31 84 t b;
#X obj 32 172 t b f;
#X obj 87 84 t b;
#X obj 151 55 route 1 0;
#X obj 203 173 t b f;
#X obj 151 84 t b;
#X obj 152 172 t b f;
#X obj 207 84 t b;
#X obj 152 143 | 2;
#X obj 206 144 & 5;
#X obj 271 55 route 1 0;
#X obj 323 173 t b f;
#X obj 271 84 t b;
#X obj 272 172 t b f;
#X obj 327 84 t b;
#X obj 32 143 | 1;
#X obj 86 144 & 6;
#X obj 272 143 | 4;
#X msg 75 229 0;
#X obj 326 144 & 3;
#X obj 33 16 inlet;
#X obj 157 23 inlet;
#X obj 280 21 inlet;
#X obj 184 274 outlet;
#X obj 31 112 v gmap;
#X obj 151 112 v gmap;
#X obj 207 112 v gmap;
#X obj 87 112 v gmap;
#X obj 271 112 v gmap;
#X obj 327 112 v gmap;
#X obj 194 233 v gmap;
#X connect 0 0 2 0;
#X connect 0 1 4 0;
#X connect 1 0 32 0;
#X connect 1 1 32 0;
#X connect 2 0 26 0;
#X connect 3 0 32 0;
#X connect 3 1 32 0;
#X connect 4 0 29 0;
#X connect 5 0 7 0;
#X connect 5 1 9 0;
#X connect 6 0 32 0;
#X connect 6 1 32 0;
#X connect 7 0 27 0;
#X connect 8 0 32 0;
#X connect 8 1 32 0;
#X connect 9 0 28 0;
#X connect 10 0 8 0;
#X connect 11 0 6 0;
#X connect 12 0 14 0;
#X connect 12 1 16 0;
#X connect 13 0 32 0;
#X connect 13 1 32 0;
#X connect 14 0 30 0;
#X connect 15 0 32 0;
#X connect 15 1 32 0;
#X connect 16 0 31 0;
#X connect 17 0 3 0;
#X connect 18 0 1 0;
#X connect 19 0 15 0;
#X connect 20 0 32 0;
#X connect 21 0 13 0;
#X connect 22 0 0 0;
#X connect 23 0 5 0;
#X connect 24 0 12 0;
#X connect 26 0 17 0;
#X connect 27 0 10 0;
#X connect 28 0 11 0;
#X connect 29 0 18 0;
#X connect 30 0 19 0;
#X connect 31 0 21 0;
#X connect 32 0 25 0;
#X restore 478 235 pd remap-green;
#X obj 172 233 tgl 15 0 empty empty empty 17 7 0 10 -262144 -1 -1 0
1;
#X obj 197 233 tgl 15 0 empty empty empty 17 7 0 10 -262144 -1 -1 0
1;
#X obj 222 233 tgl 15 0 empty empty empty 17 7 0 10 -262144 -1 -1 1
1;
#N canvas 0 54 450 300 remap-blue 0;
#X obj 31 55 route 1 0;
#X obj 83 173 t b f;
#X obj 31 84 t b;
#X obj 32 172 t b f;
#X obj 87 84 t b;
#X obj 151 55 route 1 0;
#X obj 203 173 t b f;
#X obj 151 84 t b;
#X obj 152 172 t b f;
#X obj 207 84 t b;
#X obj 152 143 | 2;
#X obj 206 144 & 5;
#X obj 271 55 route 1 0;
#X obj 323 173 t b f;
#X obj 271 84 t b;
#X obj 272 172 t b f;
#X obj 327 84 t b;
#X obj 32 143 | 1;
#X obj 86 144 & 6;
#X obj 272 143 | 4;
#X msg 75 229 0;
#X obj 326 144 & 3;
#X obj 33 16 inlet;
#X obj 157 23 inlet;
#X obj 280 21 inlet;
#X obj 184 274 outlet;
#X obj 31 112 v bmap;
#X obj 87 112 v bmap;
#X obj 151 112 v bmap;
#X obj 207 112 v bmap;
#X obj 271 112 v bmap;
#X obj 327 112 v bmap;
#X obj 194 233 v bmap;
#X connect 0 0 2 0;
#X connect 0 1 4 0;
#X connect 1 0 32 0;
#X connect 1 1 32 0;
#X connect 2 0 26 0;
#X connect 3 0 32 0;
#X connect 3 1 32 0;
#X connect 4 0 27 0;
#X connect 5 0 7 0;
#X connect 5 1 9 0;
#X connect 6 0 32 0;
#X connect 6 1 32 0;
#X connect 7 0 28 0;
#X connect 8 0 32 0;
#X connect 8 1 32 0;
#X connect 9 0 29 0;
#X connect 10 0 8 0;
#X connect 11 0 6 0;
#X connect 12 0 14 0;
#X connect 12 1 16 0;
#X connect 13 0 32 0;
#X connect 13 1 32 0;
#X connect 14 0 30 0;
#X connect 15 0 32 0;
#X connect 15 1 32 0;
#X connect 16 0 31 0;
#X connect 17 0 3 0;
#X connect 18 0 1 0;
#X connect 19 0 15 0;
#X connect 20 0 32 0;
#X connect 21 0 13 0;
#X connect 22 0 0 0;
#X connect 23 0 5 0;
#X connect 24 0 12 0;
#X connect 26 0 17 0;
#X connect 27 0 18 0;
#X connect 28 0 10 0;
#X connect 29 0 11 0;
#X connect 30 0 19 0;
#X connect 31 0 21 0;
#X connect 32 0 25 0;
#X restore 480 294 pd remap-blue;
#X text 176 164 R;
#X text 201 164 G;
#X text 226 164 B;
#X text 131 181 R ->;
#X text 131 206 G ->;
#X text 131 231 B ->;
#X msg 476 204 colormapr \$1;
#X msg 479 263 colormapg \$1;
#X msg 481 321 colormapb \$1;
#X msg 318 293 1;
#X msg 362 324 1;
#X msg 401 357 1;
#X text 20 154 Channel map;
#X msg 361 288 0;
#X msg 400 291 0;
#X msg 319 357 0;
#X msg 358 357 0;
#X msg 318 324 0;
#X msg 400 324 0;
#X connect 0 0 2 0;
#X connect 2 0 4 0;
#X connect 3 0 0 0;
#X connect 6 0 8 0;
#X connect 8 0 4 0;
#X connect 9 0 3 0;
#X connect 9 0 19 0;
#X connect 9 0 13 0;
#X connect 9 0 17 3;
#X connect 9 0 41 0;
#X connect 9 0 42 0;
#X connect 9 0 43 0;
#X connect 9 0 45 0;
#X connect 9 0 46 0;
#X connect 9 0 49 0;
#X connect 9 0 50 0;
#X connect 9 0 47 0;
#X connect 9 0 48 0;
#X connect 10 0 12 0;
#X connect 10 0 17 2;
#X connect 12 0 4 0;
#X connect 13 0 10 0;
#X connect 14 0 18 0;
#X connect 15 0 17 1;
#X connect 16 0 17 0;
#X connect 17 0 10 0;
#X connect 18 0 17 2;
#X connect 18 0 10 0;
#X connect 19 0 6 0;
#X connect 20 0 23 0;
#X connect 21 0 23 1;
#X connect 22 0 23 2;
#X connect 23 0 38 0;
#X connect 24 0 27 0;
#X connect 25 0 27 1;
#X connect 26 0 27 2;
#X connect 27 0 39 0;
#X connect 28 0 31 0;
#X connect 29 0 31 1;
#X connect 30 0 31 2;
#X connect 31 0 40 0;
#X connect 38 0 4 0;
#X connect 39 0 4 0;
#X connect 40 0 4 0;
#X connect 41 0 20 0;
#X connect 42 0 25 0;
#X connect 43 0 30 0;
#X connect 45 0 21 0;
#X connect 46 0 22 0;
#X connect 47 0 28 0;
#X connect 48 0 29 0;
#X connect 49 0 24 0;
#X connect 50 0 26 0;
#X coords 0 -1 1 1 260 270 2 0 0;
#X restore 281 211 pd color-control;
#N canvas 741 412 601 447 optimize-control 0;
#X floatatom 185 65 7 0 180 0 - - -;
#X floatatom 185 98 7 0 0 0 - - -;
#X floatatom 185 131 7 0 0 0 - - -;
#X obj 185 32 tgl 23 0 empty empty empty 17 7 0 10 -262144 -1 -1 1
1;
#X text 19 65 Max angle;
#X msg 140 270 maxangle \$1;
#X text 19 98 Subdivide;
#X msg 140 313 subdivide \$1;
#X text 19 131 Dwell points;
#X msg 140 352 blanknum \$1;
#X obj 140 212 expr 1 - $i1;
#X msg 322 96 1;
#X msg 323 127 15;
#X msg 321 162 15;
#X msg 323 198 8;
#X msg 140 240 rawmode \$1;
#X obj 116 382 s \$0-out;
#X text 19 32 Enable;
#X text 4 0 OPTIMIZE;
#X obj 292 1 r \$0-helios-init;
#X obj 185 160 bng 23 250 50 0 empty empty empty 17 7 0 10 -262144
-1 -1;
#X text 20 161 Reset;
#X obj 296 45 t b;
#X connect 0 0 5 0;
#X connect 1 0 7 0;
#X connect 2 0 9 0;
#X connect 3 0 10 0;
#X connect 5 0 16 0;
#X connect 7 0 16 0;
#X connect 9 0 16 0;
#X connect 10 0 15 0;
#X connect 11 0 3 0;
#X connect 12 0 0 0;
#X connect 13 0 1 0;
#X connect 14 0 2 0;
#X connect 15 0 16 0;
#X connect 19 0 22 0;
#X connect 20 0 22 0;
#X connect 22 0 11 0;
#X connect 22 0 12 0;
#X connect 22 0 13 0;
#X connect 22 0 14 0;
#X coords 0 -1 1 1 260 200 2 0 0;
#X restore 551 11 pd optimize-control;
#N canvas 68 222 786 637 dac-control 0;
#X obj 189 20 tgl 23 0 empty empty empty 17 7 0 10 -262144 -1 -1 0
1;
#X msg 304 38 0;
#X obj 280 544 s \$0-out;
#X obj 400 45 t b b;
#X msg 431 72 0 0 0 0 0;
#X text 3 0 DAC;
#X text 13 21 Enable;
#X text 13 191 Single mode;
#X obj 189 191 tgl 23 0 empty empty empty 17 7 0 10 -262144 -1 -1 0
1;
#X msg 388 338 singlemode \$1;
#X msg 310 180 0;
#X obj 400 15 r \$0-helios-init;
#X floatatom 189 63 7 0.01 65 0 - - -;
#X text 13 66 KPPS;
#X msg 426 110 10, f 2;
#X msg 425 147 12, f 2;
#X msg 425 176 15, f 2;
#X msg 461 112 20, f 2;
#X msg 467 147 25, f 2;
#X msg 493 116 30, f 2;
#X msg 496 145 35, f 2;
#X msg 536 113 40, f 2;
#X msg 535 142 45, f 2;
#X obj 88 96 bng 23 250 50 0 empty empty 10 4 12 0 10 -262144 -1 -1
;
#X msg 571 116 50, f 2;
#X msg 566 146 55, f 2;
#X msg 599 116 60, f 2;
#X obj 510 178 + 0;
#X obj 114 96 bng 23 250 50 0 empty empty 20 4 12 0 10 -262144 -1 -1
;
#X obj 140 96 bng 23 250 50 0 empty empty 30 4 12 0 10 -262144 -1 -1
;
#X obj 166 96 bng 23 250 50 0 empty empty 40 4 12 0 10 -262144 -1 -1
;
#X obj 192 96 bng 23 250 50 0 empty empty 50 4 12 0 10 -262144 -1 -1
;
#X obj 218 96 bng 23 250 50 0 empty empty 60 4 12 0 10 -262144 -1 -1
;
#X obj 62 96 bng 23 250 50 0 empty empty 1 4 12 0 10 -262144 -1 -1
;
#X obj 88 122 bng 23 250 50 0 empty empty 12 4 12 0 10 -262144 -1 -1
;
#X obj 88 148 bng 23 250 50 0 empty empty 15 4 12 0 10 -262144 -1 -1
;
#X obj 114 122 bng 23 250 50 0 empty empty 25 4 12 0 10 -262144 -1
-1;
#X obj 140 122 bng 23 250 50 0 empty empty 35 4 12 0 10 -262144 -1
-1;
#X obj 166 122 bng 23 250 50 0 empty empty 45 4 12 0 10 -262144 -1
-1;
#X obj 192 122 bng 23 250 50 0 empty empty 55 4 12 0 10 -262144 -1
-1;
#X obj 218 122 bng 23 250 50 0 empty empty 65 4 12 0 10 -262144 -1
-1;
#X msg 399 115 1, f 2;
#X msg 605 147 65, f 2;
#X obj 390 256 * 1000;
#X msg 391 294 pps \$1;
#X obj 189 224 tgl 23 0 empty empty empty 17 7 0 10 -262144 -1 -1 0
1;
#X obj 189 257 tgl 23 0 empty empty empty 17 7 0 10 -262144 -1 -1 0
1;
#X msg 388 461 maxstatuspoll \$1;
#X text 13 257 Don't block;
#X msg 387 383 startimmediately \$1;
#X msg 386 422 dontblock \$1;
#X msg 309 224 0;
#X msg 307 257 0;
#X msg 306 286 512;
#X floatatom 189 290 7 0 0 0 - - -;
#X text 13 290 Max status poll;
#X text 13 224 Start Immediately;
#X obj 190 352 bng 23 250 50 0 empty empty empty 17 7 0 10 -262144
-1 -1;
#X text 14 353 Dump frame;
#X msg 388 501 dumpframe 1;
#X obj 302 5 r kill;
#X obj 565 527 r \$0-out;
#X msg 572 440 0;
#X obj 571 467 s kill;
#X obj 573 334 key;
#X obj 572 384 sel 27;
#X obj 190 319 tgl 23 0 empty empty empty 17 7 0 10 -262144 -1 -1 1
1;
#X obj 573 359 spigot;
#X obj 572 411 t b b, f 8;
#X msg 626 441 0 0 0 0 0;
#X obj 626 467 s \$0-out;
#X text 13 320 ESC key killswitch;
#X msg 310 360 1;
#X obj 565 561 s helios-control;
#X connect 0 0 2 0;
#X connect 1 0 0 0;
#X connect 3 0 1 0;
#X connect 3 0 10 0;
#X connect 3 0 51 0;
#X connect 3 0 53 0;
#X connect 3 0 52 0;
#X connect 3 0 72 0;
#X connect 3 1 4 0;
#X connect 4 0 2 0;
#X connect 8 0 9 0;
#X connect 9 0 2 0;
#X connect 10 0 8 0;
#X connect 11 0 3 0;
#X connect 12 0 43 0;
#X connect 14 0 27 0;
#X connect 15 0 27 0;
#X connect 16 0 27 0;
#X connect 17 0 27 0;
#X connect 18 0 27 0;
#X connect 19 0 27 0;
#X connect 20 0 27 0;
#X connect 21 0 27 0;
#X connect 22 0 27 0;
#X connect 23 0 14 0;
#X connect 24 0 27 0;
#X connect 25 0 27 0;
#X connect 26 0 27 0;
#X connect 27 0 12 0;
#X connect 28 0 17 0;
#X connect 29 0 19 0;
#X connect 30 0 21 0;
#X connect 31 0 24 0;
#X connect 32 0 26 0;
#X connect 33 0 41 0;
#X connect 34 0 15 0;
#X connect 35 0 16 0;
#X connect 36 0 18 0;
#X connect 37 0 20 0;
#X connect 38 0 22 0;
#X connect 39 0 25 0;
#X connect 40 0 42 0;
#X connect 41 0 27 0;
#X connect 43 0 44 0;
#X connect 44 0 2 0;
#X connect 45 0 49 0;
#X connect 46 0 50 0;
#X connect 47 0 2 0;
#X connect 49 0 2 0;
#X connect 50 0 2 0;
#X connect 51 0 45 0;
#X connect 52 0 46 0;
#X connect 53 0 54 0;
#X connect 54 0 47 0;
#X connect 57 0 59 0;
#X connect 59 0 2 0;
#X connect 60 0 0 0;
#X connect 61 0 73 0;
#X connect 62 0 63 0;
#X connect 64 0 67 0;
#X connect 65 0 68 0;
#X connect 66 0 67 1;
#X connect 67 0 65 0;
#X connect 68 0 62 0;
#X connect 68 1 69 0;
#X connect 69 0 70 0;
#X connect 72 0 66 0;
#X coords 0 -1 1 1 260 390 2 0 0;
#X restore 11 11 pd dac-control;
#N canvas 431 54 969 824 helios-notes 0;
#X text 507 398 TODO;
#X text 526 416 - check for null list on DAC enable to prevent crash
;
#X text 525 435 - separate RGB intensity;
#X text 528 455 - save / load settings profiles;
#X text 528 475 - color channel mapping;
#X text 48 44 [pps]: Points per second. Range 10 - 65535 \, default=20000
, f 43;
#X text 45 80 [scale]: Scale points. 1.0=original size.;
#X text 48 145 [rotation]: Rotate points around the origin.;
#X text 45 216 [intensity]: Scale RGB values. Range 0 - 255 \, default=255
;
#X text 44 247 [ttlthreshold]: Color TTL ON threshold. Range 0 - 255
\, default=0 \, 0=OFF, f 40;
#X text 44 284 [blankoffset]: Blanking/color timing offset. Default:
0;
#X text 42 317 [rawmode]: Disable optimisation - maxangle \, subdivide
\, blanknum are ignored. Range 0 - 1 \, default=0, f 43;
#X text 45 367 [maxangle]: Set the max angle for a corner before inserting
points. Range 0 - 180 \, default=15 degrees, f 44;
#X text 45 421 [subdivide]: Set the subdivision length for straight
lines. Range 0 - 40096 \, default=15, f 43;
#X text 42 460 [blanknum]: Set the number of dwell points to insert
at corners - Default=8, f 44;
#X text 42 501 [singlemode]: Dont repeat frame if a new frame has not
been received. Default=0, f 42;
#X text 40 538 [startimmediately]: Start output immediately \, instead
of waiting for current frame (if there is one) to finish playing. Default=0
, f 41;
#X text 37 611 [dontblock]: Don't let WriteFrame() block execution
while waiting for the transfer to finish. Default=0, f 41;
#X text 36 662 [maxstatuspoll]: Set the maximum number of times to
poll the DAC ready status before sending the frame. Default=512, f
43;
#X text 497 61 [shearx] \, [sheary]: Shear X \, Y tranform;
#X text 497 81 [keystonex] \, [keystoney]: Keystone X \, Y tranform
;
#X text 497 101 [linearityx] \, [linearityy]: Transform points X \,
Y from linear to exponential., f 48;
#X text 497 141 [bowx] \, [bowy]: Bow transform;
#X text 497 161 [pincushionx] \, [pincushiony]: Pincushion transform
;
#X text 498 187 [dumpframe]: Request a frame dump. Data for the next
frame will be printed to stdout., f 49;
#X text 15 15 HELIOS MESSAGES;
#X text 45 168 [flipx] \, [flipy]: Invert points X \, Y coordinates.
Range 0 - 1 \, default=0, f 50;
#X text 45 100 [offsetx] \, [offsety]: Offset points X \, Y coordinates.
Range -4096 - 4096 \, default=0, f 47;
#X text 497 41 [scalex] \, [scaley]: Scale X \, Y transform;
#X restore 998 22 pd helios-notes;
#X obj 916 135 s \$0-helios-init;
#N canvas 550 187 793 518 geocorrection 0;
#X floatatom 140 117 6 0 0 0 - - -;
#X floatatom 200 117 6 0 0 0 - - -;
#X floatatom 140 146 6 0 0 0 - - -;
#X floatatom 200 146 6 0 0 0 - - -;
#X floatatom 140 89 6 0 0 0 - - -;
#X floatatom 200 89 6 0 0 0 - - -;
#X text 3 0 GEOMETRIC CORRECTION;
#X floatatom 140 60 6 0 0 0 - - -;
#X floatatom 200 60 6 0 0 0 - - -;
#X floatatom 140 175 6 0 0 0 - - -;
#X floatatom 200 175 6 0 0 0 - - -;
#X text 20 62 Shear;
#X text 20 91 Keystone;
#X text 20 119 Linearity;
#X text 20 148 Bow;
#X text 20 177 Pincushion;
#X msg 324 130 0;
#X msg 366 132 0;
#X obj 404 10 r \$0-helios-init;
#X msg 363 166 0;
#X msg 364 199 0;
#X msg 326 66 0;
#X msg 371 68 0;
#X msg 323 97 0;
#X msg 365 98 0;
#X msg 323 165 0;
#X obj 477 120 / 100;
#X obj 414 425 s \$0-out;
#X obj 597 120 / 100;
#X obj 477 180 / 100;
#X obj 597 180 / 100;
#X obj 477 240 / 100;
#X obj 597 240 / 100;
#X obj 477 300 / 100;
#X obj 597 300 / 100;
#X obj 477 360 / 100;
#X obj 597 360 / 100;
#X msg 477 147 shearx \$1;
#X msg 597 147 sheary \$1;
#X msg 477 207 keystonex \$1;
#X msg 597 207 keystoney \$1;
#X msg 597 267 linearityy \$1;
#X msg 477 267 linearityx \$1;
#X msg 477 327 bowx \$1;
#X msg 597 327 bowy \$1;
#X msg 477 387 pincushionx \$1;
#X msg 597 387 pincushiony \$1;
#X floatatom 140 31 6 0 0 0 - - -;
#X floatatom 200 31 6 0 0 0 - - -;
#X msg 473 81 scalex \$1;
#X obj 477 53 / 100;
#X obj 599 56 / 100;
#X msg 595 81 scaley \$1;
#X text 20 33 Scale;
#X obj 140 204 bng 23 250 50 0 empty empty empty 17 7 0 10 -262144
-1 -1;
#X text 20 204 Reset;
#X obj 290 24 t b;
#X msg 325 36 100;
#X msg 366 36 100;
#X msg 322 200 -10;
#X connect 0 0 31 0;
#X connect 1 0 32 0;
#X connect 2 0 33 0;
#X connect 3 0 34 0;
#X connect 4 0 29 0;
#X connect 5 0 30 0;
#X connect 7 0 26 0;
#X connect 8 0 28 0;
#X connect 9 0 35 0;
#X connect 10 0 36 0;
#X connect 16 0 0 0;
#X connect 17 0 1 0;
#X connect 18 0 56 0;
#X connect 19 0 3 0;
#X connect 20 0 10 0;
#X connect 21 0 7 0;
#X connect 22 0 8 0;
#X connect 23 0 4 0;
#X connect 24 0 5 0;
#X connect 25 0 2 0;
#X connect 26 0 37 0;
#X connect 28 0 38 0;
#X connect 29 0 39 0;
#X connect 30 0 40 0;
#X connect 31 0 42 0;
#X connect 32 0 41 0;
#X connect 33 0 43 0;
#X connect 34 0 44 0;
#X connect 35 0 45 0;
#X connect 36 0 46 0;
#X connect 37 0 27 0;
#X connect 38 0 27 0;
#X connect 39 0 27 0;
#X connect 40 0 27 0;
#X connect 41 0 27 0;
#X connect 42 0 27 0;
#X connect 43 0 27 0;
#X connect 44 0 27 0;
#X connect 45 0 27 0;
#X connect 46 0 27 0;
#X connect 47 0 50 0;
#X connect 48 0 51 0;
#X connect 49 0 27 0;
#X connect 50 0 49 0;
#X connect 51 0 52 0;
#X connect 52 0 27 0;
#X connect 54 0 56 0;
#X connect 56 0 57 0;
#X connect 56 0 58 0;
#X connect 56 0 21 0;
#X connect 56 0 22 0;
#X connect 56 0 23 0;
#X connect 56 0 24 0;
#X connect 56 0 16 0;
#X connect 56 0 17 0;
#X connect 56 0 25 0;
#X connect 56 0 19 0;
#X connect 56 0 59 0;
#X connect 56 0 20 0;
#X connect 57 0 47 0;
#X connect 58 0 48 0;
#X connect 59 0 9 0;
#X coords 0 -1 1 1 260 240 2 0 0;
#X restore 551 221 pd geocorrection;
#X obj 915 376 s helios-control;
#X obj 916 51 t b b, f 15;
#X obj 860 91 bng 15 250 50 0 empty empty empty 17 7 0 10 -262144 -1
-1;
#X connect 0 0 11 0;
#X connect 2 0 1 0;
#X connect 3 0 12 0;
#X connect 12 0 9 0;
#X connect 12 1 2 0;
#X connect 13 0 9 0;
#X coords 0 -1 1 1 820 490 2 0 0;
#X restore 8 9 pd UI;
#X coords 0 508 1 507 85 60 0;
