#N canvas 1972 643 749 1023 12;
#X obj 36 270 tgl 15 0 empty empty empty 17 7 0 10 #fcfcfc #000000
#000000 0 1;
#X floatatom 51 333 5 0 0 0 - - - 0;
#X obj 68 276 r settings;
#X floatatom 167 51 5 0 0 0 - - - 0;
#N canvas 2615 710 1035 1283 helios-settings 0;
#X obj 7 578 s settings;
#X floatatom 36 309 5 0 0 0 - - - 0;
#X text 112 311 <---------;
#X text 113 246 <---------;
#X floatatom 32 190 5 0 0 0 - - - 0;
#X text 112 190 <---------;
#X msg 32 218 maxangle \$1;
#X msg 32 276 subdivide \$1;
#X msg 36 337 blanknum \$1;
#X msg 22 42 intensity \$1;
#X floatatom 22 17 5 0 0 0 - - - 0;
#X msg 28 160 drawmode \$1;
#X obj 28 141 tgl 15 0 empty empty empty 17 7 0 10 #fcfcfc #000000
#000000 0 1;
#X floatatom 36 389 5 0 0 0 - - - 0;
#X text 110 388 <---------;
#X msg 36 417 maxstatuspoll \$1;
#X floatatom 32 249 5 0 0 0 - - - 0;
#X text 188 143 0=normal \, 1=raw mode - maxangle \, subdivide \, blanknum
are ignored - default 0, f 43;
#X text 108 141 <---------;
#X obj 35 454 tgl 15 0 empty empty empty 17 7 0 10 #fcfcfc #000000
#000000 0 1;
#X text 115 455 <---------;
#X msg 35 474 startimmediately \$1;
#X text 195 457 TODO;
#X obj 26 71 tgl 15 0 empty empty empty 17 7 0 10 #fcfcfc #000000 #000000
0 1;
#X text 105 73 <---------;
#X obj 35 503 tgl 15 0 empty empty empty 17 7 0 10 #fcfcfc #000000
#000000 0 1;
#X text 115 508 <---------;
#X text 195 510 TODO;
#X msg 25 92 singlemode \$1;
#X msg 35 527 dontblock \$1;
#X text 97 17 <---------;
#X text 177 19 Scale RGB values. Range 0 - 255;
#X text 185 75 Dont repeat frame if a new frame has not been received
, f 42;
#X text 183 190 Set the max angle for a corner before inserting points
- default 15 degrees, f 44;
#X text 184 246 Set the subdivision length for straight lines - default
15, f 43;
#X text 183 311 Set the number of dwell points to insert at corners
- default 8, f 44;
#X text 181 388 Set the maximum number of times to poll the DAC ready
status before sending the frame - default 512, f 43;
#X connect 1 0 8 0;
#X connect 4 0 6 0;
#X connect 6 0 0 0;
#X connect 7 0 0 0;
#X connect 8 0 0 0;
#X connect 9 0 0 0;
#X connect 10 0 9 0;
#X connect 11 0 0 0;
#X connect 12 0 11 0;
#X connect 13 0 15 0;
#X connect 15 0 0 0;
#X connect 16 0 7 0;
#X connect 19 0 21 0;
#X connect 21 0 0 0;
#X connect 23 0 28 0;
#X connect 25 0 29 0;
#X connect 28 0 0 0;
#X connect 29 0 0 0;
#X restore 156 277 pd helios-settings;
#X obj 51 306 helios 30000;
#X obj 52 242 spigot;
#X obj 87 217 tgl 15 0 empty empty empty 17 7 0 10 #fcfcfc #000000
#000000 0 1;
#N canvas 230 239 887 913 modulate 1;
#X obj 132 22 inlet;
#X obj 246 22 inlet;
#X obj 18 189 outlet;
#X obj 132 190 outlet;
#X obj 246 190 outlet;
#X obj 18 21 inlet;
#X obj 75 21 inlet;
#X obj 75 189 outlet;
#X obj 186 21 inlet;
#X obj 186 189 outlet;
#X obj 12 252 array define -yrange -2048 2047 X;
#X obj 12 280 array define -yrange -2048 2047 Y;
#X obj 13 308 array define -yrange 0 255 R;
#X obj 13 336 array define -yrange 0 255 G;
#X obj 13 364 array define -yrange 0 255 B;
#X obj 299 21 inlet;
#N canvas 2438 1017 349 385 resize 0;
#X obj 19 13 inlet;
#X obj 19 43 array size X;
#X obj 19 64 array size Y;
#X obj 19 85 array size R;
#X obj 19 106 array size G;
#X obj 19 127 array size B;
#X connect 0 0 1 0;
#X connect 0 0 2 0;
#X connect 0 0 3 0;
#X connect 0 0 4 0;
#X connect 0 0 5 0;
#X restore 299 91 pd resize;
#X obj 18 62 array set X;
#X obj 76 91 array set Y;
#X obj 133 60 array set R;
#X obj 186 90 array set G;
#X obj 243 64 array set B;
#X connect 0 0 19 0;
#X connect 1 0 21 0;
#X connect 5 0 17 0;
#X connect 6 0 18 0;
#X connect 8 0 20 0;
#X connect 15 0 16 0;
#X restore 215 335 pd modulate;
#X f 17;
#X obj 17 434 array define -yrange -2048 2047 heliosdata;
#X obj 76 177 array set heliosdata;
#X obj 173 117 array size heliosdata;
#X obj 172 92 * 5;
#N canvas 3208 858 568 1164 scale-xyrgb 0;
#X obj 20 9 inlet;
#X obj 21 102 float 0;
#X obj 21 74 until;
#X msg 67 74 0;
#X obj 21 165 list store, f 14;
#X msg 21 132 get \$1 5;
#X obj 81 103 + 5;
#X obj 164 72 s reset;
#X obj 116 195 t b b;
#X obj 117 222 s out;
#X obj 20 37 t b b l b, f 21;
#X obj 21 319 unpack f f f f f, f 20;
#X obj 39 255 inlet;
#X obj 21 361 * 1;
#X obj 55 362 * 1;
#X obj 21 398 pack f f f f f, f 20;
#X obj 90 361 * 1;
#X obj 123 362 * 1;
#X obj 158 362 * 1;
#X obj 21 547 outlet;
#X obj 39 283 / 100;
#X obj 84 255 inlet;
#X obj 84 283 / 100;
#X obj 127 254 inlet;
#X obj 127 282 / 100;
#X obj 172 254 inlet;
#X obj 172 282 / 100;
#X obj 215 253 inlet;
#X obj 215 281 / 100;
#X obj 22 504 list store, f 14;
#X obj 116 476 r reset;
#X obj 33 475 r out;
#X msg 22 439 append \$1 \$2 \$3 \$4 \$5;
#X connect 0 0 10 0;
#X connect 1 0 6 0;
#X connect 1 0 5 0;
#X connect 2 0 1 0;
#X connect 3 0 1 1;
#X connect 4 0 11 0;
#X connect 4 1 8 0;
#X connect 5 0 4 0;
#X connect 6 0 1 1;
#X connect 8 0 9 0;
#X connect 8 1 2 1;
#X connect 10 0 2 0;
#X connect 10 1 3 0;
#X connect 10 2 4 1;
#X connect 10 3 7 0;
#X connect 11 0 13 0;
#X connect 11 1 14 0;
#X connect 11 2 16 0;
#X connect 11 3 17 0;
#X connect 11 4 18 0;
#X connect 12 0 20 0;
#X connect 13 0 15 0;
#X connect 14 0 15 1;
#X connect 15 0 32 0;
#X connect 16 0 15 2;
#X connect 17 0 15 3;
#X connect 18 0 15 4;
#X connect 20 0 13 1;
#X connect 21 0 22 0;
#X connect 22 0 14 1;
#X connect 23 0 24 0;
#X connect 24 0 16 1;
#X connect 25 0 26 0;
#X connect 26 0 17 1;
#X connect 27 0 28 0;
#X connect 28 0 18 1;
#X connect 29 0 19 0;
#X connect 30 0 29 1;
#X connect 31 0 29 0;
#X connect 32 0 29 0;
#X restore 51 92 pd scale-xyrgb;
#X floatatom 70 54 5 0 100 0 - - - 0;
#X msg 25 398 0 0 255 255 255 2000 0 255 255 255;
#N canvas 3237 113 390 623 osc-in 0;
#X obj 17 41 oscparse;
#X obj 84 159 list length;
#X obj 17 72 list trim;
#X obj 84 186 change;
#X obj 17 128 t l l, f 10;
#X obj 17 245 outlet;
#X obj 84 244 outlet;
#X text 84 267 num points;
#X obj 84 214 / 5;
#X obj 17 13 netreceive -u -b 12000;
#X obj 17 100 route xyrgb;
#X text 20 269 xyrgb;
#X connect 0 0 2 0;
#X connect 1 0 3 0;
#X connect 2 0 10 0;
#X connect 3 0 8 0;
#X connect 4 0 5 0;
#X connect 4 1 1 0;
#X connect 8 0 6 0;
#X connect 9 0 0 0;
#X connect 10 0 4 0;
#X restore 51 11 pd osc-in;
#X f 16;
#N canvas 2647 969 920 922 xyrgb-demux 0;
#X obj 20 9 inlet;
#X obj 21 102 float 0;
#X obj 21 74 until;
#X msg 67 74 0;
#X text 66 8 interleaved xyrgb;
#X obj 22 398 outlet;
#X obj 176 395 outlet;
#X obj 329 398 outlet;
#X obj 99 397 outlet;
#X obj 252 399 outlet;
#X obj 22 364 list store;
#X obj 22 160 list store, f 14;
#X msg 21 132 get \$1 5;
#X obj 81 103 + 5;
#X obj 22 249 unpack f f f f f, f 44;
#X msg 22 281 append \$1;
#X obj 99 364 list store;
#X obj 166 312 r reset;
#X msg 98 281 append \$1;
#X obj 176 364 list store;
#X obj 243 312 r reset;
#X msg 174 281 append \$1;
#X obj 252 364 list store;
#X obj 318 311 r reset;
#X msg 250 281 append \$1;
#X obj 329 364 list store;
#X obj 395 312 r reset;
#X msg 327 281 append \$1;
#X obj 164 72 s reset;
#X obj 89 311 r reset;
#X obj 117 190 t b b;
#X obj 118 217 s out;
#X obj 30 336 r out;
#X obj 113 336 r out;
#X obj 183 338 r out;
#X obj 263 337 r out;
#X obj 336 337 r out;
#X text 30 421 X;
#X text 111 420 Y;
#X text 184 422 R;
#X text 264 421 G;
#X text 344 420 B;
#X obj 20 37 t b b l b, f 21;
#X connect 0 0 42 0;
#X connect 1 0 13 0;
#X connect 1 0 12 0;
#X connect 2 0 1 0;
#X connect 3 0 1 1;
#X connect 10 0 5 0;
#X connect 11 0 14 0;
#X connect 11 1 30 0;
#X connect 12 0 11 0;
#X connect 13 0 1 1;
#X connect 14 0 15 0;
#X connect 14 1 18 0;
#X connect 14 2 21 0;
#X connect 14 3 24 0;
#X connect 14 4 27 0;
#X connect 15 0 10 0;
#X connect 16 0 8 0;
#X connect 17 0 16 1;
#X connect 18 0 16 0;
#X connect 19 0 6 0;
#X connect 20 0 19 1;
#X connect 21 0 19 0;
#X connect 22 0 9 0;
#X connect 23 0 22 1;
#X connect 24 0 22 0;
#X connect 25 0 7 0;
#X connect 26 0 25 1;
#X connect 27 0 25 0;
#X connect 29 0 10 1;
#X connect 30 0 31 0;
#X connect 30 1 2 1;
#X connect 32 0 10 0;
#X connect 33 0 16 0;
#X connect 34 0 19 0;
#X connect 35 0 22 0;
#X connect 36 0 25 0;
#X connect 42 0 2 0;
#X connect 42 1 3 0;
#X connect 42 2 11 1;
#X connect 42 3 28 0;
#X restore 215 308 pd xyrgb-demux;
#X connect 0 0 5 0;
#X connect 2 0 5 0;
#X connect 3 0 12 0;
#X connect 5 0 1 0;
#X connect 6 0 5 0;
#X connect 7 0 6 1;
#X connect 12 0 11 0;
#X connect 13 0 10 0;
#X connect 13 0 6 0;
#X connect 14 0 13 1;
#X connect 14 0 13 2;
#X connect 16 0 13 0;
#X connect 16 1 3 0;
#X connect 17 0 8 0;
#X connect 17 1 8 1;
#X connect 17 2 8 2;
#X connect 17 3 8 3;
#X connect 17 4 8 4;
#X coords 0 255.75 0.5 255.25 85 60 0;
