#N canvas 1009 323 468 1046 12;
#N canvas 1706 387 1924 1539 UI 1;
#X text 605 176 0=normal \, 1=raw mode - maxangle \, subdivide \, blanknum
are ignored - default 0, f 43;
#X text 604 367 Dont repeat frame if a new frame has not been received
, f 42;
#X text 604 217 Set the max angle for a corner before inserting points
- default 15 degrees, f 44;
#X text 603 256 Set the subdivision length for straight lines - default
15, f 43;
#X text 605 300 Set the number of dwell points to insert at corners
- default 8, f 44;
#X text 602 407 Set the maximum number of times to poll the DAC ready
status before sending the frame - default 512, f 43;
#X text 603 529 Don't let WriteFrame() block execution while waiting
for the transfer to finish, f 41;
#X text 603 472 Start output immediately \, instead of waiting for
current frame (if there is one) to finish playing, f 41;
#X floatatom 119 52 7 0 0 0 - - - 16;
#X msg 368 140 pps \$1;
#X text 605 75 Scale RGB values. Range 0 - 255 \, default=255;
#X text 606 36 Points per second. Range 10000 - 65535 \, default=20000
, f 43;
#X obj 85 521 outlet;
#X obj 85 494 r \$0-out;
#X obj 368 163 s \$0-out;
#X text 14 57 PPS;
#X floatatom 119 85 7 0 0 0 - - - 16;
#X obj 368 209 s \$0-out;
#X text 14 90 Intensity;
#X msg 368 186 intensity \$1;
#X obj 363 309 s \$0-out;
#X floatatom 119 204 7 0 0 0 - - - 16;
#X obj 363 355 s \$0-out;
#X floatatom 119 237 7 0 0 0 - - - 16;
#X obj 363 401 s \$0-out;
#X floatatom 119 270 7 0 0 0 - - - 16;
#X obj 363 447 s \$0-out;
#X obj 363 513 s \$0-out;
#X obj 119 171 tgl 23 0 empty empty empty 17 7 0 10 #fcfcfc #000000
#000000 0 1;
#X msg 363 286 drawmode \$1;
#X text 14 209 Max angle;
#X msg 363 332 maxangle \$1;
#X text 14 242 Subdivide;
#X msg 363 378 subdivide \$1;
#X text 14 275 Dwell points;
#X msg 363 424 blanknum \$1;
#X text 14 176 Optimize;
#X obj 363 260 expr 1 - $i1;
#X text 14 328 Single mode;
#X obj 119 323 tgl 23 0 empty empty empty 17 7 0 10 #fcfcfc #000000
#000000 0 1;
#X msg 363 490 singlemode \$1;
#X obj 364 659 s \$0-out;
#X obj 363 564 s \$0-out;
#X obj 119 356 tgl 23 0 empty empty empty 17 7 0 10 #fcfcfc #000000
#000000 0 1;
#X obj 363 610 s \$0-out;
#X obj 119 389 tgl 23 0 empty empty empty 17 7 0 10 #fcfcfc #000000
#000000 0 1;
#X text 14 427 Max poll;
#X msg 364 636 maxstatuspoll \$1;
#X text 14 361 Start Immed.;
#X text 14 394 Don't block;
#X msg 363 541 startimmediately \$1;
#X msg 363 587 dontblock \$1;
#X msg 238 57 20000;
#X msg 240 88 255;
#X msg 242 167 1;
#X msg 242 207 15;
#X msg 240 242 15;
#X msg 242 278 8;
#X msg 242 333 0;
#X msg 241 369 0;
#X msg 245 396 0;
#X msg 244 420 512;
#X floatatom 119 422 7 0 0 0 - - - 16;
#X msg 637 687 0;
#X obj 636 714 s kill;
#X obj 638 581 key;
#X obj 637 631 sel 27;
#X obj 119 118 tgl 23 0 empty empty empty 17 7 0 10 #fcfcfc #000000
#000000 0 1;
#X obj 638 606 spigot;
#X text 14 123 Kill switch;
#X msg 240 122 1;
#X obj 637 658 t b b, f 8;
#X msg 690 689 0 0 0 0 0;
#X text 603 102 Killswitch - Esc key centers the galvos \, turns off
the beam \, then disables the DAC.;
#X obj 690 715 s \$0-out;
#X obj 119 19 tgl 23 0 empty empty empty 17 7 0 10 #fcfcfc #000000
#000000 0 1;
#X text 14 24 Enable DAC;
#X msg 236 20 0;
#X obj 366 113 s \$0-out;
#X obj 335 55 t b b;
#X msg 366 78 0 0 0 0 0;
#X obj 334 22 loadbang;
#X connect 8 0 9 0;
#X connect 9 0 14 0;
#X connect 13 0 12 0;
#X connect 16 0 19 0;
#X connect 19 0 17 0;
#X connect 21 0 31 0;
#X connect 23 0 33 0;
#X connect 25 0 35 0;
#X connect 28 0 37 0;
#X connect 29 0 20 0;
#X connect 31 0 22 0;
#X connect 33 0 24 0;
#X connect 35 0 26 0;
#X connect 37 0 29 0;
#X connect 39 0 40 0;
#X connect 40 0 27 0;
#X connect 43 0 50 0;
#X connect 45 0 51 0;
#X connect 47 0 41 0;
#X connect 50 0 42 0;
#X connect 51 0 44 0;
#X connect 52 0 8 0;
#X connect 53 0 16 0;
#X connect 54 0 28 0;
#X connect 55 0 21 0;
#X connect 56 0 23 0;
#X connect 57 0 25 0;
#X connect 58 0 39 0;
#X connect 59 0 43 0;
#X connect 60 0 45 0;
#X connect 61 0 62 0;
#X connect 62 0 47 0;
#X connect 63 0 64 0;
#X connect 65 0 68 0;
#X connect 66 0 71 0;
#X connect 67 0 68 1;
#X connect 68 0 66 0;
#X connect 70 0 67 0;
#X connect 71 0 63 0;
#X connect 71 1 72 0;
#X connect 72 0 74 0;
#X connect 75 0 78 0;
#X connect 77 0 75 0;
#X connect 79 0 52 0;
#X connect 79 0 53 0;
#X connect 79 0 54 0;
#X connect 79 0 55 0;
#X connect 79 0 56 0;
#X connect 79 0 57 0;
#X connect 79 0 58 0;
#X connect 79 0 59 0;
#X connect 79 0 60 0;
#X connect 79 0 61 0;
#X connect 79 0 70 0;
#X connect 79 0 77 0;
#X connect 79 1 80 0;
#X connect 80 0 78 0;
#X connect 81 0 79 0;
#X coords 0 -1 1 1 200 460 2 0 0;
#X restore 8 10 pd UI;
#X obj 8 480 outlet;
#X connect 0 0 1 0;
#X coords 0 523 1 522 85 60 0;
