#N canvas 77 223 511 410 12;
#X floatatom 326 160 6 0 0 0 - #0-init #0-val;
#X obj 437 60 inlet;
#X obj 244 348 outlet;
#X msg 236 123 set \$1;
#X obj 237 64 makefilename \$1;
#X obj 235 10 loadbang;
#X obj 311 31 bng 15 250 50 0 empty empty empty 17 7 0 10 -262144 -1
-1;
#X symbolatom 240 160 12 0 0 0 - - -;
#X obj 245 276 pack s f;
#X obj 359 252 v;
#X obj 248 243 symbol;
#X obj 237 92 t s s s, f 9;
#X obj 182 273 outlet;
#X obj 180 210 t f b f f, f 26;
#X msg 248 314 \$1 \$2;
#X obj 235 37 t b b;
#X obj 356 63 float \$2;
#X obj 355 99 s \$0-init;
#X obj 162 181 r \$0-val;
#X connect 1 0 17 0;
#X connect 3 0 7 0;
#X connect 4 0 11 0;
#X connect 5 0 15 0;
#X connect 6 0 4 0;
#X connect 8 0 14 0;
#X connect 10 0 8 0;
#X connect 11 0 3 0;
#X connect 11 1 10 1;
#X connect 11 2 9 1;
#X connect 13 0 12 0;
#X connect 13 1 10 0;
#X connect 13 2 8 1;
#X connect 13 3 9 0;
#X connect 14 0 2 0;
#X connect 15 0 4 0;
#X connect 15 1 16 0;
#X connect 16 0 17 0;
#X connect 18 0 13 0;
#X coords 0 -1 1 1 130 19 2 240 160;
