#N canvas 711 54 614 476 12;
#N canvas 791 381 502 527 points-arrays 1;
#N canvas 0 50 450 250 (subpatch) 0;
#X array pointsx 10 float 3;
#A 0 0.914284 -0.3 -0.328571 -0.342857 -0.014286 0.0999995 0.199999
-0.842857 0.685714 -0.814286;
#X coords 0 -1 10 1 200 140 1 0 0;
#X restore 9 23 graph;
#N canvas 0 50 450 250 (subpatch) 0;
#X array pointsy 10 float 3;
#A 0 -0.0714251 -0.271427 -0.228571 0 0 0 0 0 0 0;
#X coords 0 -1 10 1 200 140 1 0 0;
#X restore 6 195 graph;
#N canvas 0 50 450 250 (subpatch) 0;
#X array pointsr 10 float 3;
#A 0 0.664286 0.621429 0.535714 0 0 0 0 0 0 0;
#X coords 0 0 10 1 200 140 1 0 0;
#X restore 256 23 graph;
#N canvas 0 50 450 250 (subpatch) 0;
#X array pointsg 10 float 3;
#A 0 0.107146 0.47857 0.578569 0 0 0 0 0 0 0;
#X coords 0 0 10 1 200 140 1 0 0;
#X restore 253 188 graph;
#N canvas 0 50 450 250 (subpatch) 0;
#X array pointsb 10 float 3;
#A 0 0.285713 0.149996 0.392856 0 0 0 0 0 0 0;
#X coords 0 0 10 1 200 140 1 0 0;
#X restore 252 349 graph;
#X restore 373 21 pd points-arrays;
#X obj 14 10 tgl 24 0 empty empty empty 17 7 0 10 -262144 -1 -1 0 1
;
#X floatatom 117 12 5 0 0 0 - - -;
#X text 158 11 FPS;
#N canvas 377 540 332 373 frame-clock 0;
#X obj 27 148 metro 50;
#X msg 83 87 1000 \$1;
#X obj 83 114 /;
#X obj 164 20 loadbang;
#X obj 28 40 inlet;
#X obj 85 40 inlet;
#X text 82 14 FPS;
#X obj 27 319 outlet;
#X text 25 14 start;
#X obj 167 84 v fps;
#X msg 163 45 30;
#X obj 58 272 v time;
#X obj 59 205 float;
#X obj 107 205 + 1;
#X obj 27 177 t b b;
#X obj 58 240 expr $f1 / fps;
#X msg 171 139 0;
#X connect 0 0 14 0;
#X connect 1 0 2 0;
#X connect 2 0 0 1;
#X connect 3 0 10 0;
#X connect 4 0 0 0;
#X connect 5 0 1 0;
#X connect 5 0 9 0;
#X connect 10 0 1 0;
#X connect 10 0 9 0;
#X connect 12 0 13 0;
#X connect 12 0 15 0;
#X connect 13 0 12 1;
#X connect 14 0 7 0;
#X connect 14 1 12 0;
#X connect 15 0 11 0;
#X connect 16 0 12 1;
#X restore 14 42 pd frame-clock;
#X floatatom 291 114 7 1 4096 0 - - -;
#X floatatom 369 115 7 1 20 0 - - -;
#X obj 291 143 v numbeams;
#X floatatom 430 115 7 0 0 0 - - -;
#X floatatom 509 115 7 0 0 0 - - -;
#X obj 431 143 v preblank;
#X obj 510 143 v postblank;
#X obj 370 143 v dwell;
#X obj 291 57 loadbang;
#X msg 370 85 16;
#X msg 510 87 0.8;
#X msg 431 87 0.2;
#X msg 291 83 20;
#N canvas 611 265 450 300 resize 0;
#X obj 80 61 change;
#X obj 88 106 t f f f f f;
#X obj 162 136 array size pointsx;
#X obj 143 165 array size pointsy;
#X obj 125 194 array size pointsr;
#X obj 106 225 array size pointsg;
#X obj 88 253 array size pointsb;
#X obj 69 18 inlet;
#X connect 0 0 1 0;
#X connect 1 0 6 0;
#X connect 1 1 5 0;
#X connect 1 2 4 0;
#X connect 1 3 3 0;
#X connect 1 4 2 0;
#X connect 7 0 0 0;
#X restore 264 182 pd resize;
#X obj 332 246 pdlua;
#X msg 332 222 load renderbeams.pd_lua;
#X obj 16 161 renderbeams, f 18;
#X obj 16 73 t b b b b b, f 18;
#N canvas 305 93 450 300 arrays-to-lists 0;
#X obj 57 50 inlet;
#X obj 107 50 inlet;
#X obj 157 50 inlet;
#X obj 207 50 inlet;
#X obj 257 50 inlet;
#X obj 102 164 array get pointsy;
#X obj 206 106 array get pointsg;
#X obj 156 136 array get pointsr;
#X obj 55 191 array get pointsx;
#X obj 257 78 array get pointsb;
#X obj 54 250 outlet;
#X obj 104 250 outlet;
#X obj 154 250 outlet;
#X obj 204 250 outlet;
#X obj 254 250 outlet;
#X connect 0 0 8 0;
#X connect 1 0 5 0;
#X connect 2 0 7 0;
#X connect 3 0 6 0;
#X connect 4 0 9 0;
#X connect 5 0 11 0;
#X connect 6 0 13 0;
#X connect 7 0 12 0;
#X connect 8 0 10 0;
#X connect 9 0 14 0;
#X restore 17 113 pd arrays-to-lists;
#X obj 241 308 array define -yrange -2048 2047 heliosdata;
#X obj 63 238 list length;
#X obj 63 266 change;
#X obj 63 294 array size heliosdata;
#X obj 41 328 array set heliosdata;
#X obj 133 41 bng 15 250 50 0 empty empty empty 17 7 0 10 -262144 -1
-1;
#X obj 194 187 bng 15 250 50 0 empty empty empty 17 7 0 10 -262144
-1 -1;
#X msg 165 70 dwell \$1;
#X floatatom 162 46 5 0 0 0 - - -;
#X floatatom 173 101 5 0 0 0 - - -;
#X msg 176 125 subdivide \$1;
#X obj 382 257 helios-control;
#X obj 74 405 r helios-control;
#X obj 21 405 helios;
#X obj 21 436 helios-status;
#X obj 21 370 array get heliosdata;
#X obj 16 210 t b l l;
#X floatatom 221 267 5 0 0 0 - - -;
#X obj 222 241 / 5;
#X msg 264 373 0 0 255 255 255;
#X connect 1 0 4 0;
#X connect 2 0 4 1;
#X connect 4 0 22 0;
#X connect 5 0 7 0;
#X connect 5 0 18 0;
#X connect 6 0 12 0;
#X connect 8 0 10 0;
#X connect 9 0 11 0;
#X connect 13 0 15 0;
#X connect 13 0 16 0;
#X connect 13 0 14 0;
#X connect 13 0 17 0;
#X connect 14 0 6 0;
#X connect 15 0 9 0;
#X connect 16 0 8 0;
#X connect 17 0 5 0;
#X connect 20 0 19 0;
#X connect 21 0 40 0;
#X connect 22 0 23 0;
#X connect 22 1 23 1;
#X connect 22 2 23 2;
#X connect 22 3 23 3;
#X connect 22 4 23 4;
#X connect 23 0 21 0;
#X connect 23 1 21 1;
#X connect 23 2 21 2;
#X connect 23 3 21 3;
#X connect 23 4 21 4;
#X connect 25 0 26 0;
#X connect 26 0 27 0;
#X connect 26 0 42 0;
#X connect 29 0 22 0;
#X connect 31 0 21 0;
#X connect 32 0 31 0;
#X connect 33 0 34 0;
#X connect 34 0 21 0;
#X connect 36 0 37 0;
#X connect 37 0 38 0;
#X connect 39 0 37 0;
#X connect 40 0 39 0;
#X connect 40 1 28 0;
#X connect 40 2 25 0;
#X connect 42 0 41 0;
#X connect 43 0 37 0;
