#N canvas 2974 138 622 1262 12;
#X obj 127 423 tgl 24 0 empty kill empty 17 7 0 10 #fcfcfc #000000
#000000 0 1;
#X floatatom 50 571 5 0 0 0 - - - 0;
#X obj 126 505 r settings;
#N canvas 1838 79 1108 1324 helios-settings 0;
#X obj 5 628 s settings;
#X floatatom 34 359 5 0 0 0 - - - 0;
#X text 110 361 <---------;
#X text 111 296 <---------;
#X floatatom 30 240 5 0 0 0 - - - 0;
#X text 110 240 <---------;
#X msg 30 268 maxangle \$1;
#X msg 30 326 subdivide \$1;
#X msg 34 387 blanknum \$1;
#X msg 20 92 intensity \$1;
#X floatatom 20 67 5 0 0 0 - - - 0;
#X msg 26 210 drawmode \$1;
#X obj 26 191 tgl 15 0 empty empty empty 17 7 0 10 #fcfcfc #000000
#000000 0 1;
#X floatatom 34 439 5 0 0 0 - - - 0;
#X text 108 438 <---------;
#X msg 34 467 maxstatuspoll \$1;
#X floatatom 30 299 5 0 0 0 - - - 0;
#X text 186 193 0=normal \, 1=raw mode - maxangle \, subdivide \, blanknum
are ignored - default 0, f 43;
#X text 106 191 <---------;
#X obj 33 504 tgl 15 0 empty empty empty 17 7 0 10 #fcfcfc #000000
#000000 0 1;
#X text 113 501 <---------;
#X msg 33 524 startimmediately \$1;
#X obj 24 121 tgl 15 0 empty empty empty 17 7 0 10 #fcfcfc #000000
#000000 0 1;
#X text 103 123 <---------;
#X obj 33 559 tgl 15 0 empty empty empty 17 7 0 10 #fcfcfc #000000
#000000 0 1;
#X text 113 558 <---------;
#X msg 23 142 singlemode \$1;
#X msg 33 583 dontblock \$1;
#X text 95 67 <---------;
#X text 183 125 Dont repeat frame if a new frame has not been received
, f 42;
#X text 181 240 Set the max angle for a corner before inserting points
- default 15 degrees, f 44;
#X text 182 296 Set the subdivision length for straight lines - default
15, f 43;
#X text 181 361 Set the number of dwell points to insert at corners
- default 8, f 44;
#X text 179 438 Set the maximum number of times to poll the DAC ready
status before sending the frame - default 512, f 43;
#X text 193 560 Don't let WriteFrame() block execution while waiting
for the transfer to finish, f 41;
#X text 193 503 Start output immediately \, instead of waiting for
current frame (if there is one) to finish playing, f 41;
#X floatatom 15 11 7 0 0 0 - - - 0;
#X text 93 11 <---------;
#X msg 15 36 pps \$1;
#X text 175 69 Scale RGB values. Range 0 - 255 \, default=255;
#X text 173 13 Points per second. Range 10000 - 65535 \, default=20000
, f 43;
#X connect 1 0 8 0;
#X connect 4 0 6 0;
#X connect 6 0 0 0;
#X connect 7 0 0 0;
#X connect 8 0 0 0;
#X connect 9 0 0 0;
#X connect 10 0 9 0;
#X connect 11 0 0 0;
#X connect 12 0 11 0;
#X connect 13 0 15 0;
#X connect 15 0 0 0;
#X connect 16 0 7 0;
#X connect 19 0 21 0;
#X connect 21 0 0 0;
#X connect 22 0 26 0;
#X connect 24 0 27 0;
#X connect 26 0 0 0;
#X connect 27 0 0 0;
#X connect 36 0 38 0;
#X connect 38 0 0 0;
#X restore 127 454 pd helios-settings;
#X obj 50 544 helios 30000;
#X obj 51 445 spigot;
#X obj 90 424 tgl 15 0 empty empty empty 17 7 0 10 #fcfcfc #000000
#000000 0 1;
#N canvas 3110 1014 544 1015 scale-xyrgb 1;
#X obj 16 10 inlet;
#X obj 16 94 float 0;
#X obj 16 66 until;
#X msg 62 66 0;
#X obj 16 146 list store, f 14;
#X msg 16 119 get \$1 5;
#X obj 76 95 + 5;
#X obj 111 172 t b b;
#X obj 16 38 t b b l b, f 21;
#X obj 18 291 unpack f f f f f, f 20;
#X obj 36 235 inlet;
#X obj 17 320 * 1;
#X obj 51 321 * 1;
#X obj 17 350 pack f f f f f, f 20;
#X obj 86 320 * 1;
#X obj 119 321 * 1;
#X obj 154 321 * 1;
#X obj 17 469 outlet;
#X obj 36 263 / 100;
#X obj 81 235 inlet;
#X obj 81 263 / 100;
#X obj 124 234 inlet;
#X obj 124 262 / 100;
#X obj 169 234 inlet;
#X obj 169 262 / 100;
#X obj 212 233 inlet;
#X obj 212 261 / 100;
#X obj 17 439 list store, f 14;
#X msg 17 379 append \$1 \$2 \$3 \$4 \$5;
#X obj 159 64 s \$0-reset;
#X obj 111 411 r \$0-reset;
#X obj 112 199 s \$0-out;
#X obj 28 410 r \$0-out;
#X connect 0 0 8 0;
#X connect 1 0 6 0;
#X connect 1 0 5 0;
#X connect 2 0 1 0;
#X connect 3 0 1 1;
#X connect 4 0 9 0;
#X connect 4 1 7 0;
#X connect 5 0 4 0;
#X connect 6 0 1 1;
#X connect 7 0 31 0;
#X connect 7 1 2 1;
#X connect 8 0 2 0;
#X connect 8 1 3 0;
#X connect 8 2 4 1;
#X connect 8 3 29 0;
#X connect 9 0 11 0;
#X connect 9 1 12 0;
#X connect 9 2 14 0;
#X connect 9 3 15 0;
#X connect 9 4 16 0;
#X connect 10 0 18 0;
#X connect 11 0 13 0;
#X connect 12 0 13 1;
#X connect 13 0 28 0;
#X connect 14 0 13 2;
#X connect 15 0 13 3;
#X connect 16 0 13 4;
#X connect 18 0 11 1;
#X connect 19 0 20 0;
#X connect 20 0 12 1;
#X connect 21 0 22 0;
#X connect 22 0 14 1;
#X connect 23 0 24 0;
#X connect 24 0 15 1;
#X connect 25 0 26 0;
#X connect 26 0 16 1;
#X connect 27 0 17 0;
#X connect 28 0 27 0;
#X connect 30 0 27 1;
#X connect 32 0 27 0;
#X restore 50 386 pd scale-xyrgb;
#X floatatom 73 357 5 0 400 1 - - - 0;
#X floatatom 50 285 5 0 0 0 - - - 0;
#X obj 49 204 tgl 15 0 empty empty empty 17 7 0 10 #fcfcfc #000000
#000000 0 1;
#X obj 51 319 text get ildafile;
#X floatatom 103 203 5 0 0 0 - - - 0;
#X msg 127 478 0 0 255 255 255;
#X obj 95 42 bng 24 250 50 0 empty empty empty 17 7 0 10 #fcfcfc #000000
#000000;
#N canvas 2046 1162 930 459 frame-counter 0;
#X obj 74 113 + 1;
#X obj 14 112 float 0;
#X obj 13 179 outlet;
#X obj 323 53 t b;
#X obj 322 79 float 0;
#X obj 13 150 expr if ($i2 > 0 \, $f1 % $i2 \, $f1);
#X obj 272 177 outlet;
#X text 322 8 reset;
#X text 244 9 limit;
#X text 12 12 step;
#X obj 11 40 inlet;
#X obj 239 29 inlet;
#X obj 322 30 inlet;
#X obj 239 57 t f f;
#X connect 0 0 1 1;
#X connect 1 0 0 0;
#X connect 1 0 5 0;
#X connect 3 0 4 0;
#X connect 4 0 1 1;
#X connect 5 0 2 0;
#X connect 10 0 1 0;
#X connect 11 0 13 0;
#X connect 12 0 3 0;
#X connect 13 0 5 1;
#X connect 13 1 6 0;
#X restore 50 253 pd frame-counter;
#X f 32;
#N canvas 0 0 833 661 work-in-progress 0;
#N canvas 1861 98 887 913 modulate 0;
#X obj 132 22 inlet;
#X obj 246 22 inlet;
#X obj 18 189 outlet;
#X obj 132 190 outlet;
#X obj 246 190 outlet;
#X obj 18 21 inlet;
#X obj 75 21 inlet;
#X obj 75 189 outlet;
#X obj 186 21 inlet;
#X obj 186 189 outlet;
#X obj 12 252 array define -yrange -2048 2047 X;
#X obj 12 280 array define -yrange -2048 2047 Y;
#X obj 13 308 array define -yrange 0 255 R;
#X obj 13 336 array define -yrange 0 255 G;
#X obj 13 364 array define -yrange 0 255 B;
#X obj 299 21 inlet;
#N canvas 2438 1017 349 385 resize 0;
#X obj 19 13 inlet;
#X obj 19 43 array size X;
#X obj 19 64 array size Y;
#X obj 19 85 array size R;
#X obj 19 106 array size G;
#X obj 19 127 array size B;
#X connect 0 0 1 0;
#X connect 0 0 2 0;
#X connect 0 0 3 0;
#X connect 0 0 4 0;
#X connect 0 0 5 0;
#X restore 299 91 pd resize;
#X obj 18 62 array set X;
#X obj 76 91 array set Y;
#X obj 133 60 array set R;
#X obj 186 90 array set G;
#X obj 243 64 array set B;
#X connect 0 0 19 0;
#X connect 1 0 21 0;
#X connect 5 0 17 0;
#X connect 6 0 18 0;
#X connect 8 0 20 0;
#X connect 15 0 16 0;
#X restore 82 173 pd modulate;
#X f 17;
#N canvas 1618 693 920 922 xyrgb-demux 0;
#X obj 20 9 inlet;
#X obj 21 102 float 0;
#X obj 21 74 until;
#X msg 67 74 0;
#X text 66 8 interleaved xyrgb;
#X obj 22 398 outlet;
#X obj 176 395 outlet;
#X obj 329 398 outlet;
#X obj 99 397 outlet;
#X obj 252 399 outlet;
#X obj 22 364 list store;
#X obj 22 160 list store, f 14;
#X msg 21 132 get \$1 5;
#X obj 81 103 + 5;
#X obj 22 249 unpack f f f f f, f 44;
#X msg 22 281 append \$1;
#X obj 99 364 list store;
#X obj 166 312 r reset;
#X msg 98 281 append \$1;
#X obj 176 364 list store;
#X obj 243 312 r reset;
#X msg 174 281 append \$1;
#X obj 252 364 list store;
#X obj 318 311 r reset;
#X msg 250 281 append \$1;
#X obj 329 364 list store;
#X obj 395 312 r reset;
#X msg 327 281 append \$1;
#X obj 164 72 s reset;
#X obj 89 311 r reset;
#X obj 117 190 t b b;
#X obj 118 217 s out;
#X obj 30 336 r out;
#X obj 113 336 r out;
#X obj 183 338 r out;
#X obj 263 337 r out;
#X obj 336 337 r out;
#X text 30 421 X;
#X text 111 420 Y;
#X text 184 422 R;
#X text 264 421 G;
#X text 344 420 B;
#X obj 20 37 t b b l b, f 21;
#X obj 288 182 print;
#X msg 291 141 \$0;
#X connect 0 0 42 0;
#X connect 1 0 13 0;
#X connect 1 0 12 0;
#X connect 2 0 1 0;
#X connect 3 0 1 1;
#X connect 10 0 5 0;
#X connect 11 0 14 0;
#X connect 11 1 30 0;
#X connect 12 0 11 0;
#X connect 13 0 1 1;
#X connect 14 0 15 0;
#X connect 14 1 18 0;
#X connect 14 2 21 0;
#X connect 14 3 24 0;
#X connect 14 4 27 0;
#X connect 15 0 10 0;
#X connect 16 0 8 0;
#X connect 17 0 16 1;
#X connect 18 0 16 0;
#X connect 19 0 6 0;
#X connect 20 0 19 1;
#X connect 21 0 19 0;
#X connect 22 0 9 0;
#X connect 23 0 22 1;
#X connect 24 0 22 0;
#X connect 25 0 7 0;
#X connect 26 0 25 1;
#X connect 27 0 25 0;
#X connect 29 0 10 1;
#X connect 30 0 31 0;
#X connect 30 1 2 1;
#X connect 32 0 10 0;
#X connect 33 0 16 0;
#X connect 34 0 19 0;
#X connect 35 0 22 0;
#X connect 36 0 25 0;
#X connect 42 0 2 0;
#X connect 42 1 3 0;
#X connect 42 2 11 1;
#X connect 42 3 28 0;
#X connect 44 0 43 0;
#X restore 82 120 pd xyrgb-demux;
#N canvas 1919 557 651 1289 xyrgb-mux 0;
#X obj 20 9 inlet;
#X obj 80 200 + 1;
#X obj 20 199 float 0;
#X obj 20 478 pack f f f f f;
#X obj 20 339 * 2047;
#X obj 44 364 * 2047;
#X obj 69 390 * 255;
#X obj 93 415 * 255;
#X obj 118 441 * 255;
#X obj 50 537 array set heliosdata;
#X obj 143 468 * 5;
#X obj 20 229 t f f f f f f, f 18;
#X obj 18 506 t b l;
#X obj 140 178 array size heliosdata;
#X obj 139 148 * 5;
#X obj 20 171 until;
#X obj 20 143 float;
#X msg 66 171 0;
#X text 66 8 bang;
#X obj 18 591 outlet;
#X obj 108 117 t f f;
#X obj 18 564 array get heliosdata;
#X obj 20 37 t b b b, f 13;
#X obj 108 66 array size pointsx;
#X obj 109 91 change;
#X obj 20 258 tabread X;
#X obj 44 285 tabread Y;
#X obj 69 312 tabread R;
#X obj 93 338 tabread G;
#X obj 118 363 tabread B;
#X obj 15 619 array define -yrange -2048 2047 heliosdata;
#X connect 0 0 22 0;
#X connect 1 0 2 1;
#X connect 2 0 1 0;
#X connect 2 0 11 0;
#X connect 3 0 12 0;
#X connect 4 0 3 0;
#X connect 5 0 3 1;
#X connect 6 0 3 2;
#X connect 7 0 3 3;
#X connect 8 0 3 4;
#X connect 10 0 9 1;
#X connect 11 0 25 0;
#X connect 11 1 26 0;
#X connect 11 2 27 0;
#X connect 11 3 28 0;
#X connect 11 4 29 0;
#X connect 11 5 10 0;
#X connect 12 0 21 0;
#X connect 12 1 9 0;
#X connect 14 0 13 0;
#X connect 15 0 2 0;
#X connect 16 0 15 0;
#X connect 17 0 2 1;
#X connect 20 0 16 1;
#X connect 20 1 14 0;
#X connect 21 0 19 0;
#X connect 22 0 16 0;
#X connect 22 1 17 0;
#X connect 22 2 23 0;
#X connect 23 0 24 0;
#X connect 24 0 20 0;
#X connect 25 0 4 0;
#X connect 26 0 5 0;
#X connect 27 0 6 0;
#X connect 28 0 7 0;
#X connect 29 0 8 0;
#X restore 80 210 pd xyrgb-mux;
#X obj 205 61 list length;
#X floatatom 205 117 5 0 0 0 - - - 0;
#X obj 205 91 / 5;
#X text 246 116 points in frame;
#X obj 207 143 change;
#X connect 1 0 0 0;
#X connect 1 1 0 1;
#X connect 1 2 0 2;
#X connect 1 3 0 3;
#X connect 1 4 0 4;
#X connect 3 0 5 0;
#X connect 4 0 7 0;
#X connect 5 0 4 0;
#X connect 7 0 0 5;
#X restore 151 577 pd work-in-progress;
#X obj 50 226 metro 50;
#X msg 48 148 XYRGB/photon-3D2DRudy.ild.xyrgb;
#X obj 47 42 bng 24 250 50 0 empty empty empty 17 7 0 10 #fcfcfc #000000
#000000;
#X floatatom 118 285 5 0 0 0 - - - 0;
#X text 93 285 of;
#X floatatom 192 42 5 0 0 0 - - - 0;
#X obj 240 63 t b b;
#X obj 240 42 bng 15 250 50 0 empty empty empty 17 7 0 10 #fcfcfc #000000
#000000;
#X obj 143 42 bng 24 250 50 0 empty empty empty 17 7 0 10 #fcfcfc #000000
#000000;
#X obj 47 119 t a b, f 28;
#N canvas 1063 633 993 628 ilda-library 0;
#X obj 183 278 text define ildafile;
#X msg 267 247 clear;
#X msg 183 246 read -c \$1;
#X obj 100 211 text size ildafile;
#X obj 17 255 outlet;
#X obj 104 254 outlet;
#X obj 307 143 text define xyrgb_index;
#X obj 295 32 loadbang;
#X msg 307 115 read -c xyrgb_index.txt;
#X obj 18 178 t s b s b, f 36;
#X text 8 277 filename;
#X text 97 277 num frames;
#X msg 18 209 set \$1;
#N canvas 2144 464 774 547 counter 0;
#X obj 78 145 + 1;
#X obj 18 144 float 0;
#X obj 76 223 outlet;
#X obj 18 66 t b b;
#X obj 76 62 t b b;
#X msg 316 96 0;
#X msg 50 94 -1;
#X msg 108 95 1;
#X obj 184 63 t f f;
#X text 14 11 prev;
#X text 75 11 next;
#X text 188 11 goto;
#X text 313 11 reset;
#X text 130 12 rand;
#X text 249 11 limit;
#X obj 133 64 random;
#X obj 249 58 t f f;
#X obj 76 191 mod;
#X obj 15 29 inlet;
#X obj 76 29 inlet;
#X obj 134 31 inlet;
#X obj 186 31 inlet;
#X obj 252 34 inlet;
#X obj 316 34 inlet;
#X connect 0 0 1 1;
#X connect 0 0 17 0;
#X connect 1 0 0 0;
#X connect 3 0 1 0;
#X connect 3 1 6 0;
#X connect 4 0 1 0;
#X connect 4 1 7 0;
#X connect 5 0 1 1;
#X connect 6 0 0 1;
#X connect 7 0 0 1;
#X connect 8 0 1 1;
#X connect 8 1 17 0;
#X connect 15 0 1 1;
#X connect 15 0 17 0;
#X connect 16 0 15 1;
#X connect 16 1 17 1;
#X connect 17 0 2 0;
#X connect 18 0 3 0;
#X connect 19 0 4 0;
#X connect 20 0 15 0;
#X connect 21 0 8 0;
#X connect 22 0 16 0;
#X connect 23 0 5 0;
#X restore 18 114 pd counter;
#X f 32;
#X text 23 11 prev;
#X text 67 11 next;
#X text 157 8 goto;
#X text 242 8 reset;
#X obj 18 151 text get xyrgb_index;
#X msg 260 115 0, f 2;
#X text 111 11 rand;
#X obj 283 88 text size xyrgb_index;
#X floatatom 167 151 5 0 0 0 - - - 0;
#X obj 18 31 inlet;
#X obj 62 31 inlet;
#X obj 106 31 inlet;
#X obj 151 31 inlet;
#X obj 239 32 inlet;
#X obj 239 60 t b b b b, f 10;
#X connect 1 0 0 0;
#X connect 2 0 0 0;
#X connect 3 0 5 0;
#X connect 7 0 28 0;
#X connect 8 0 6 0;
#X connect 9 0 12 0;
#X connect 9 1 3 0;
#X connect 9 2 2 0;
#X connect 9 3 1 0;
#X connect 12 0 4 0;
#X connect 13 0 18 0;
#X connect 13 0 22 0;
#X connect 18 0 9 0;
#X connect 19 0 18 0;
#X connect 21 0 13 4;
#X connect 23 0 13 0;
#X connect 24 0 13 1;
#X connect 25 0 13 2;
#X connect 26 0 13 3;
#X connect 27 0 28 0;
#X connect 28 0 13 5;
#X connect 28 1 19 0;
#X connect 28 2 21 0;
#X connect 28 3 8 0;
#X restore 47 91 pd ilda-library;
#X f 28;
#X obj 195 350 helios-control;
#X text 8 285 Frame;
#X text 45 16 Prev;
#X text 94 16 Next;
#X text 142 16 Rand;
#X text 188 16 Goto;
#X text 236 16 Reset;
#X obj 48 180 r kill;
#X connect 0 0 4 0;
#X connect 2 0 4 0;
#X connect 4 0 1 0;
#X connect 5 0 4 0;
#X connect 6 0 5 1;
#X connect 7 0 5 0;
#X connect 8 0 7 1;
#X connect 8 0 7 2;
#X connect 9 0 11 0;
#X connect 10 0 17 0;
#X connect 11 0 7 0;
#X connect 12 0 17 1;
#X connect 13 0 4 0;
#X connect 14 0 27 1;
#X connect 15 0 9 0;
#X connect 15 1 20 0;
#X connect 17 0 15 0;
#X connect 19 0 27 0;
#X connect 22 0 27 3;
#X connect 23 0 27 4;
#X connect 23 1 15 2;
#X connect 24 0 23 0;
#X connect 25 0 27 2;
#X connect 26 0 18 0;
#X connect 26 1 15 2;
#X connect 27 0 26 0;
#X connect 27 1 15 1;
#X connect 35 0 10 0;
#X coords 0 315.5 0.5 315 85 60 0;
