#N canvas 2974 138 772 1220 12;
#X floatatom 63 850 5 0 0 0 - - - 0;
#X obj 63 823 helios 30000;
#X floatatom 65 592 5 0 0 0 - - - 0;
#X obj 63 496 tgl 24 0 empty empty empty 17 7 0 10 #fcfcfc #000000
#000000 0 1;
#X obj 66 626 text get ildafile;
#X msg 88 774 0 0 255 255 255;
#X obj 108 321 bng 24 250 50 0 empty empty empty 17 7 0 10 #fcfcfc
#000000 #000000;
#N canvas 2046 1162 930 459 frame-counter 0;
#X obj 74 113 + 1;
#X obj 14 112 float 0;
#X obj 13 179 outlet;
#X obj 323 53 t b;
#X obj 322 79 float 0;
#X obj 13 150 expr if ($i2 > 0 \, $f1 % $i2 \, $f1);
#X obj 272 177 outlet;
#X text 322 8 reset;
#X text 244 9 limit;
#X text 12 12 step;
#X obj 11 40 inlet;
#X obj 239 29 inlet;
#X obj 322 30 inlet;
#X obj 239 57 t f f;
#X connect 0 0 1 1;
#X connect 1 0 0 0;
#X connect 1 0 5 0;
#X connect 3 0 4 0;
#X connect 4 0 1 1;
#X connect 5 0 2 0;
#X connect 10 0 1 0;
#X connect 11 0 13 0;
#X connect 12 0 3 0;
#X connect 13 0 5 1;
#X connect 13 1 6 0;
#X restore 65 560 pd frame-counter;
#X f 32;
#N canvas 0 0 833 661 work-in-progress 0;
#N canvas 1861 98 887 913 modulate 0;
#X obj 132 22 inlet;
#X obj 246 22 inlet;
#X obj 18 189 outlet;
#X obj 132 190 outlet;
#X obj 246 190 outlet;
#X obj 18 21 inlet;
#X obj 75 21 inlet;
#X obj 75 189 outlet;
#X obj 186 21 inlet;
#X obj 186 189 outlet;
#X obj 12 252 array define -yrange -2048 2047 X;
#X obj 12 280 array define -yrange -2048 2047 Y;
#X obj 13 308 array define -yrange 0 255 R;
#X obj 13 336 array define -yrange 0 255 G;
#X obj 13 364 array define -yrange 0 255 B;
#X obj 299 21 inlet;
#N canvas 2438 1017 349 385 resize 0;
#X obj 19 13 inlet;
#X obj 19 43 array size X;
#X obj 19 64 array size Y;
#X obj 19 85 array size R;
#X obj 19 106 array size G;
#X obj 19 127 array size B;
#X connect 0 0 1 0;
#X connect 0 0 2 0;
#X connect 0 0 3 0;
#X connect 0 0 4 0;
#X connect 0 0 5 0;
#X restore 299 91 pd resize;
#X obj 18 62 array set X;
#X obj 76 91 array set Y;
#X obj 133 60 array set R;
#X obj 186 90 array set G;
#X obj 243 64 array set B;
#X connect 0 0 19 0;
#X connect 1 0 21 0;
#X connect 5 0 17 0;
#X connect 6 0 18 0;
#X connect 8 0 20 0;
#X connect 15 0 16 0;
#X restore 82 173 pd modulate;
#X f 17;
#N canvas 1067 1111 920 922 xyrgb-demux 0;
#X obj 20 9 inlet;
#X obj 21 102 float 0;
#X obj 21 74 until;
#X msg 67 74 0;
#X text 66 8 interleaved xyrgb;
#X obj 22 398 outlet;
#X obj 176 395 outlet;
#X obj 329 398 outlet;
#X obj 99 397 outlet;
#X obj 252 399 outlet;
#X obj 22 364 list store;
#X obj 22 160 list store, f 14;
#X msg 21 132 get \$1 5;
#X obj 81 103 + 5;
#X obj 22 249 unpack f f f f f, f 44;
#X msg 22 281 append \$1;
#X obj 99 364 list store;
#X obj 166 312 r reset;
#X msg 98 281 append \$1;
#X obj 176 364 list store;
#X obj 243 312 r reset;
#X msg 174 281 append \$1;
#X obj 252 364 list store;
#X obj 318 311 r reset;
#X msg 250 281 append \$1;
#X obj 329 364 list store;
#X obj 395 312 r reset;
#X msg 327 281 append \$1;
#X obj 164 72 s reset;
#X obj 89 311 r reset;
#X obj 117 190 t b b;
#X obj 118 217 s out;
#X obj 30 336 r out;
#X obj 113 336 r out;
#X obj 183 338 r out;
#X obj 263 337 r out;
#X obj 336 337 r out;
#X text 30 421 X;
#X text 111 420 Y;
#X text 184 422 R;
#X text 264 421 G;
#X text 344 420 B;
#X obj 20 37 t b b l b, f 21;
#X obj 288 182 print;
#X msg 291 141 \$0;
#X connect 0 0 42 0;
#X connect 1 0 13 0;
#X connect 1 0 12 0;
#X connect 2 0 1 0;
#X connect 3 0 1 1;
#X connect 10 0 5 0;
#X connect 11 0 14 0;
#X connect 11 1 30 0;
#X connect 12 0 11 0;
#X connect 13 0 1 1;
#X connect 14 0 15 0;
#X connect 14 1 18 0;
#X connect 14 2 21 0;
#X connect 14 3 24 0;
#X connect 14 4 27 0;
#X connect 15 0 10 0;
#X connect 16 0 8 0;
#X connect 17 0 16 1;
#X connect 18 0 16 0;
#X connect 19 0 6 0;
#X connect 20 0 19 1;
#X connect 21 0 19 0;
#X connect 22 0 9 0;
#X connect 23 0 22 1;
#X connect 24 0 22 0;
#X connect 25 0 7 0;
#X connect 26 0 25 1;
#X connect 27 0 25 0;
#X connect 29 0 10 1;
#X connect 30 0 31 0;
#X connect 30 1 2 1;
#X connect 32 0 10 0;
#X connect 33 0 16 0;
#X connect 34 0 19 0;
#X connect 35 0 22 0;
#X connect 36 0 25 0;
#X connect 42 0 2 0;
#X connect 42 1 3 0;
#X connect 42 2 11 1;
#X connect 42 3 28 0;
#X connect 44 0 43 0;
#X restore 82 120 pd xyrgb-demux;
#N canvas 46 688 651 1289 xyrgb-mux 0;
#X obj 20 9 inlet;
#X obj 80 200 + 1;
#X obj 20 199 float 0;
#X obj 20 478 pack f f f f f;
#X obj 20 339 * 2047;
#X obj 44 364 * 2047;
#X obj 69 390 * 255;
#X obj 93 415 * 255;
#X obj 118 441 * 255;
#X obj 50 537 array set heliosdata;
#X obj 143 468 * 5;
#X obj 20 229 t f f f f f f, f 18;
#X obj 18 506 t b l;
#X obj 140 178 array size heliosdata;
#X obj 139 148 * 5;
#X obj 20 171 until;
#X obj 20 143 float;
#X msg 66 171 0;
#X text 66 8 bang;
#X obj 18 591 outlet;
#X obj 108 117 t f f;
#X obj 18 564 array get heliosdata;
#X obj 20 37 t b b b, f 13;
#X obj 108 66 array size pointsx;
#X obj 109 91 change;
#X obj 20 258 tabread X;
#X obj 44 285 tabread Y;
#X obj 69 312 tabread R;
#X obj 93 338 tabread G;
#X obj 118 363 tabread B;
#X obj 15 619 array define -yrange -2048 2047 heliosdata;
#X connect 0 0 22 0;
#X connect 1 0 2 1;
#X connect 2 0 1 0;
#X connect 2 0 11 0;
#X connect 3 0 12 0;
#X connect 4 0 3 0;
#X connect 5 0 3 1;
#X connect 6 0 3 2;
#X connect 7 0 3 3;
#X connect 8 0 3 4;
#X connect 10 0 9 1;
#X connect 11 0 25 0;
#X connect 11 1 26 0;
#X connect 11 2 27 0;
#X connect 11 3 28 0;
#X connect 11 4 29 0;
#X connect 11 5 10 0;
#X connect 12 0 21 0;
#X connect 12 1 9 0;
#X connect 14 0 13 0;
#X connect 15 0 2 0;
#X connect 16 0 15 0;
#X connect 17 0 2 1;
#X connect 20 0 16 1;
#X connect 20 1 14 0;
#X connect 21 0 19 0;
#X connect 22 0 16 0;
#X connect 22 1 17 0;
#X connect 22 2 23 0;
#X connect 23 0 24 0;
#X connect 24 0 20 0;
#X connect 25 0 4 0;
#X connect 26 0 5 0;
#X connect 27 0 6 0;
#X connect 28 0 7 0;
#X connect 29 0 8 0;
#X restore 80 210 pd xyrgb-mux;
#X obj 205 61 list length;
#X floatatom 205 117 5 0 0 0 - - - 0;
#X obj 205 91 / 5;
#X text 246 116 points in frame;
#X obj 207 143 change;
#N canvas 3110 1014 544 1015 scale-xyrgb 0;
#X obj 16 10 inlet;
#X obj 16 94 float 0;
#X obj 16 66 until;
#X msg 62 66 0;
#X obj 16 146 list store, f 14;
#X msg 16 119 get \$1 5;
#X obj 76 95 + 5;
#X obj 111 172 t b b;
#X obj 16 38 t b b l b, f 21;
#X obj 18 291 unpack f f f f f, f 20;
#X obj 36 235 inlet;
#X obj 17 320 * 1;
#X obj 51 321 * 1;
#X obj 17 350 pack f f f f f, f 20;
#X obj 86 320 * 1;
#X obj 119 321 * 1;
#X obj 154 321 * 1;
#X obj 17 469 outlet;
#X obj 36 263 / 100;
#X obj 81 235 inlet;
#X obj 81 263 / 100;
#X obj 124 234 inlet;
#X obj 124 262 / 100;
#X obj 169 234 inlet;
#X obj 169 262 / 100;
#X obj 212 233 inlet;
#X obj 212 261 / 100;
#X obj 17 439 list store, f 14;
#X msg 17 379 append \$1 \$2 \$3 \$4 \$5;
#X obj 159 64 s \$0-reset;
#X obj 111 411 r \$0-reset;
#X obj 112 199 s \$0-out;
#X obj 28 410 r \$0-out;
#X connect 0 0 8 0;
#X connect 1 0 6 0;
#X connect 1 0 5 0;
#X connect 2 0 1 0;
#X connect 3 0 1 1;
#X connect 4 0 9 0;
#X connect 4 1 7 0;
#X connect 5 0 4 0;
#X connect 6 0 1 1;
#X connect 7 0 31 0;
#X connect 7 1 2 1;
#X connect 8 0 2 0;
#X connect 8 1 3 0;
#X connect 8 2 4 1;
#X connect 8 3 29 0;
#X connect 9 0 11 0;
#X connect 9 1 12 0;
#X connect 9 2 14 0;
#X connect 9 3 15 0;
#X connect 9 4 16 0;
#X connect 10 0 18 0;
#X connect 11 0 13 0;
#X connect 12 0 13 1;
#X connect 13 0 28 0;
#X connect 14 0 13 2;
#X connect 15 0 13 3;
#X connect 16 0 13 4;
#X connect 18 0 11 1;
#X connect 19 0 20 0;
#X connect 20 0 12 1;
#X connect 21 0 22 0;
#X connect 22 0 14 1;
#X connect 23 0 24 0;
#X connect 24 0 15 1;
#X connect 25 0 26 0;
#X connect 26 0 16 1;
#X connect 27 0 17 0;
#X connect 28 0 27 0;
#X connect 30 0 27 1;
#X connect 32 0 27 0;
#X restore 214 249 pd scale-xyrgb;
#X floatatom 240 218 5 0 400 1 - - - 0;
#X connect 1 0 0 0;
#X connect 1 1 0 1;
#X connect 1 2 0 2;
#X connect 1 3 0 3;
#X connect 1 4 0 4;
#X connect 3 0 5 0;
#X connect 4 0 7 0;
#X connect 5 0 4 0;
#X connect 7 0 0 5;
#X connect 9 0 8 1;
#X connect 9 0 8 2;
#X restore 165 850 pd work-in-progress;
#X obj 65 533 metro 50;
#X msg 61 427 XYRGB/Dancer.ild.xyrgb;
#X obj 60 321 bng 24 250 50 0 empty empty empty 17 7 0 10 #fcfcfc #000000
#000000;
#X floatatom 133 592 5 0 0 0 - - - 0;
#X text 108 592 of;
#X floatatom 205 321 5 0 0 0 - - - 0;
#X obj 253 342 t b b;
#X obj 253 321 bng 15 250 50 0 empty empty empty 17 7 0 10 #fcfcfc
#000000 #000000;
#X obj 156 321 bng 24 250 50 0 empty empty empty 17 7 0 10 #fcfcfc
#000000 #000000;
#X obj 60 398 t a b, f 28;
#N canvas 1108 269 993 628 ilda-library 1;
#X obj 183 278 text define ildafile;
#X msg 267 247 clear;
#X msg 183 246 read -c \$1;
#X obj 100 211 text size ildafile;
#X obj 17 255 outlet;
#X obj 104 254 outlet;
#X obj 307 143 text define xyrgb_index;
#X obj 295 32 loadbang;
#X msg 307 115 read -c xyrgb_index.txt;
#X obj 18 178 t s b s b, f 36;
#X text 8 277 filename;
#X text 97 277 num frames;
#X msg 18 209 set \$1;
#N canvas 2144 464 774 547 counter 1;
#X obj 78 145 + 1;
#X obj 18 144 float 0;
#X obj 76 223 outlet;
#X obj 18 66 t b b;
#X obj 76 62 t b b;
#X msg 316 96 0;
#X msg 50 94 -1;
#X msg 108 95 1;
#X obj 184 63 t f f;
#X text 14 11 prev;
#X text 75 11 next;
#X text 188 11 goto;
#X text 313 11 reset;
#X text 130 12 rand;
#X text 249 11 limit;
#X obj 133 64 random;
#X obj 249 58 t f f;
#X obj 76 191 mod;
#X obj 15 29 inlet;
#X obj 76 29 inlet;
#X obj 134 31 inlet;
#X obj 186 31 inlet;
#X obj 252 34 inlet;
#X obj 316 34 inlet;
#X msg 13 197 seed \$1;
#X connect 0 0 1 1;
#X connect 0 0 17 0;
#X connect 0 0 24 0;
#X connect 1 0 0 0;
#X connect 3 0 1 0;
#X connect 3 1 6 0;
#X connect 4 0 1 0;
#X connect 4 1 7 0;
#X connect 5 0 1 1;
#X connect 6 0 0 1;
#X connect 7 0 0 1;
#X connect 8 0 1 1;
#X connect 8 1 17 0;
#X connect 15 0 1 1;
#X connect 15 0 17 0;
#X connect 16 0 15 1;
#X connect 16 1 17 1;
#X connect 17 0 2 0;
#X connect 18 0 3 0;
#X connect 19 0 4 0;
#X connect 20 0 15 0;
#X connect 21 0 8 0;
#X connect 22 0 16 0;
#X connect 23 0 5 0;
#X connect 24 0 15 0;
#X restore 18 114 pd counter;
#X f 32;
#X text 23 11 prev;
#X text 67 11 next;
#X text 157 8 goto;
#X text 242 8 reset;
#X obj 18 151 text get xyrgb_index;
#X msg 260 115 0, f 2;
#X text 111 11 rand;
#X obj 283 88 text size xyrgb_index;
#X floatatom 167 151 5 0 0 0 - - - 0;
#X obj 18 31 inlet;
#X obj 62 31 inlet;
#X obj 106 31 inlet;
#X obj 151 31 inlet;
#X obj 239 32 inlet;
#X obj 239 60 t b b b b, f 10;
#X connect 1 0 0 0;
#X connect 2 0 0 0;
#X connect 3 0 5 0;
#X connect 7 0 28 0;
#X connect 8 0 6 0;
#X connect 9 0 12 0;
#X connect 9 1 3 0;
#X connect 9 2 2 0;
#X connect 9 3 1 0;
#X connect 12 0 4 0;
#X connect 13 0 18 0;
#X connect 13 0 22 0;
#X connect 18 0 9 0;
#X connect 19 0 18 0;
#X connect 21 0 13 4;
#X connect 23 0 13 0;
#X connect 24 0 13 1;
#X connect 25 0 13 2;
#X connect 26 0 13 3;
#X connect 27 0 28 0;
#X connect 28 0 13 5;
#X connect 28 1 19 0;
#X connect 28 2 21 0;
#X connect 28 3 8 0;
#X restore 60 370 pd ilda-library;
#X f 28;
#X obj 181 701 helios-control;
#X text 23 592 Frame;
#X text 58 295 Prev;
#X text 107 295 Next;
#X text 155 295 Rand;
#X text 201 295 Goto;
#X text 249 295 Reset;
#X obj 61 458 r kill;
#X obj 86 797 r helios-control;
#X obj 116 875 print helios-control;
#X text 26 499 Play;
#X msg 119 482 1000 \$1;
#X obj 118 505 /;
#X floatatom 120 458 5 0 0 0 - - - 0;
#X text 162 457 FPS;
#X connect 1 0 0 0;
#X connect 2 0 4 0;
#X connect 3 0 9 0;
#X connect 4 0 1 0;
#X connect 5 0 1 0;
#X connect 6 0 19 1;
#X connect 7 0 2 0;
#X connect 7 1 12 0;
#X connect 9 0 7 0;
#X connect 11 0 19 0;
#X connect 14 0 19 3;
#X connect 15 0 19 4;
#X connect 15 1 7 2;
#X connect 16 0 15 0;
#X connect 17 0 19 2;
#X connect 18 0 10 0;
#X connect 18 1 7 2;
#X connect 19 0 18 0;
#X connect 19 1 7 1;
#X connect 27 0 3 0;
#X connect 28 0 1 0;
#X connect 28 0 29 0;
#X connect 31 0 32 0;
#X connect 32 0 9 1;
#X connect 33 0 31 0;
#X coords 0 305 0.5 304.5 85 60 0;
